<svg viewBox="0 0 721 326" fill="none" xmlns="http://www.w3.org/2000/svg"><path opacity="0.3" fill-rule="evenodd" clip-rule="evenodd" d="M8.71327 319H717.226C719.296 319 720.939 320.537 720.939 322.472C720.939 324.407 719.296 325.943 717.226 325.943H8.71327C6.64358 326 5 324.407 5 322.472C5 320.537 6.64358 319 8.71327 319Z" fill="#AFAFAF"/><g clip-path="url(#clip0)"><path fill-rule="evenodd" clip-rule="evenodd" d="M31.9481 110.593C40.3333 110.593 47.0415 117.362 47.0415 125.645V188.956C47.0415 197.317 40.3333 204.007 31.9481 204.007C23.6428 204.007 16.8547 197.317 16.8547 188.956V125.645C16.8547 117.283 23.6428 110.593 31.9481 110.593Z" fill="#3D3D3D"/><path fill-rule="evenodd" clip-rule="evenodd" d="M51.9928 129.706C60.378 129.706 67.0861 136.475 67.0861 144.757V205.361C67.0861 213.723 60.2981 220.412 51.9928 220.412C43.6076 220.412 36.8994 213.643 36.8994 205.361V144.757C36.8994 136.475 43.6076 129.706 51.9928 129.706Z" fill="#3D3D3D"/><path fill-rule="evenodd" clip-rule="evenodd" d="M112.206 129.706C119.553 129.706 125.543 135.679 125.543 143.005V207.192C125.543 214.519 119.553 220.492 112.206 220.492C104.859 220.492 98.87 214.519 98.87 207.192V143.085C98.87 135.679 104.859 129.706 112.206 129.706Z" fill="#3D3D3D"/><path fill-rule="evenodd" clip-rule="evenodd" d="M127.722 106.636C133.472 106.636 138.104 111.255 138.104 116.989V161.984C138.104 167.718 133.472 172.337 127.722 172.337C121.972 172.337 117.34 167.718 117.34 161.984V116.989C117.34 111.335 121.972 106.636 127.722 106.636Z" fill="#3D3D3D"/><path fill-rule="evenodd" clip-rule="evenodd" d="M67.2688 21.0273C95.1396 21.0273 117.74 43.5645 117.74 71.3577V154.18C117.74 181.973 95.1396 204.51 67.2688 204.51C39.398 204.51 16.7979 181.973 16.7979 154.18V71.3577C16.8777 43.4849 39.4778 21.0273 67.2688 21.0273Z" fill="#3D3D3D"/><path fill-rule="evenodd" clip-rule="evenodd" d="M113.587 65.9421C130.357 65.9421 144.013 79.56 144.013 96.2837V176.478C144.013 193.201 130.357 206.819 113.587 206.819C96.8167 206.819 83.1608 193.201 83.1608 176.478V96.2837C83.1608 79.56 96.8167 65.9421 113.587 65.9421Z" fill="#3D3D3D"/><path fill-rule="evenodd" clip-rule="evenodd" d="M71.5812 154.02H93.6223C103.046 154.02 110.712 161.665 110.712 171.062V177.513C110.712 183.327 106 188.105 100.091 188.105H65.1126C59.2829 188.105 54.4913 183.406 54.4913 177.513V170.983C54.5712 161.586 62.1578 154.02 71.5812 154.02Z" fill="#FFB100"/><path fill-rule="evenodd" clip-rule="evenodd" d="M81.8031 59.3325H84.1989C99.9311 59.3325 112.629 72.0744 112.629 87.6831V100.982C112.629 116.671 99.8513 129.333 84.1989 129.333H81.8031C66.0709 129.333 53.3733 116.591 53.3733 100.982V87.7628C53.3733 71.9947 66.0709 59.3325 81.8031 59.3325Z" fill="#FFB100"/><path fill-rule="evenodd" clip-rule="evenodd" d="M83.001 73.8262C99.3721 73.8262 112.629 87.0458 112.629 103.371V126.625C112.629 135.067 105.761 141.915 97.2958 141.915H68.6264C60.1613 141.915 53.2935 135.067 53.2935 126.625V103.371C53.3733 87.0458 66.6299 73.8262 83.001 73.8262Z" fill="#A56644"/><path fill-rule="evenodd" clip-rule="evenodd" d="M76.7243 122.824C74.7278 121.868 72.6515 120.992 70.655 120.037C68.4988 119.081 66.3426 118.046 64.1864 117.09C62.9885 116.533 61.6309 117.09 61.0719 118.285C60.9122 118.603 60.8324 118.922 60.8324 119.24V126.169C60.8324 130.947 64.6656 134.77 69.4571 134.77H75.766C77.0437 134.77 78.0819 133.734 78.0819 132.46V124.974C78.0819 124.098 77.5229 123.222 76.7243 122.824Z" fill="#932626"/><mask id="mask0" mask-type="alpha" maskUnits="userSpaceOnUse" x="60" y="116" width="19" height="19"><path fill-rule="evenodd" clip-rule="evenodd" d="M76.7243 122.824C74.7278 121.868 72.6515 120.992 70.655 120.037C68.4988 119.081 66.3426 118.046 64.1864 117.09C62.9885 116.533 61.6309 117.09 61.0719 118.285C60.9122 118.603 60.8324 118.922 60.8324 119.24V126.169C60.8324 130.947 64.6656 134.77 69.4571 134.77H75.766C77.0437 134.77 78.0819 133.734 78.0819 132.46V124.974C78.0819 124.098 77.5229 123.222 76.7243 122.824Z" fill="white"/></mask><g mask="url(#mask0)"><path d="M78.6409 128.16C75.0684 128.16 72.1723 131.048 72.1723 134.61C72.1723 138.173 75.0684 141.061 78.6409 141.061C82.2134 141.061 85.1095 138.173 85.1095 134.61C85.1095 131.048 82.2134 128.16 78.6409 128.16Z" fill="#FF4B4B"/></g><mask id="mask1" mask-type="alpha" maskUnits="userSpaceOnUse" x="60" y="116" width="19" height="19"><path fill-rule="evenodd" clip-rule="evenodd" d="M76.7243 122.824C74.7278 121.868 72.6515 120.992 70.655 120.037C68.4988 119.081 66.3426 118.046 64.1864 117.09C62.9885 116.533 61.6309 117.09 61.0719 118.285C60.9122 118.603 60.8324 118.922 60.8324 119.24V126.169C60.8324 130.947 64.6656 134.77 69.4571 134.77H75.766C77.0437 134.77 78.0819 133.734 78.0819 132.46V124.974C78.0819 124.098 77.5229 123.222 76.7243 122.824Z" fill="white"/></mask><g mask="url(#mask1)"><path fill-rule="evenodd" clip-rule="evenodd" d="M80.0784 113.268H67.5405C65.3843 113.268 63.6274 115.02 63.6274 117.17V120.276C63.6274 122.426 65.3843 124.178 67.5405 124.178H80.0784C82.2346 124.178 83.9915 122.426 83.9915 120.276V117.17C83.9915 115.02 82.2346 113.268 80.0784 113.268Z" fill="white"/></g><path fill-rule="evenodd" clip-rule="evenodd" d="M94.7403 89.4348C99.6117 89.4348 103.605 93.4166 103.605 98.2745V105.282C103.605 110.14 99.6117 114.122 94.7403 114.122C89.8689 114.122 85.876 110.14 85.876 105.282V98.2745C85.9558 93.4166 89.8689 89.4348 94.7403 89.4348Z" fill="white"/><path fill-rule="evenodd" clip-rule="evenodd" d="M71.5812 89.4348C66.7098 89.4348 62.7168 93.4166 62.7168 98.2745V105.282C62.7168 110.14 66.7098 114.122 71.5812 114.122C76.4526 114.122 80.4455 110.14 80.4455 105.282V98.2745C80.4455 93.4166 76.4526 89.4348 71.5812 89.4348Z" fill="white"/><path fill-rule="evenodd" clip-rule="evenodd" d="M79.8065 153.941C75.574 159.834 76.8518 168.036 82.6815 172.257L108.636 191.131C114.465 195.352 122.691 194.077 126.923 188.264C131.156 182.371 129.878 174.168 124.048 169.948L98.1741 150.994C92.2646 146.773 84.1189 148.048 79.8065 153.941C79.8065 153.861 79.8065 153.941 79.8065 153.941Z" fill="#FFB100"/><path fill-rule="evenodd" clip-rule="evenodd" d="M85.9558 152.428C90.8272 157.843 90.348 166.125 84.9975 170.983L62.8765 190.892C57.526 195.75 49.2206 195.352 44.3492 189.936C39.4778 184.521 39.957 176.239 45.3075 171.381L67.4285 151.472C72.779 146.614 81.0844 147.012 85.9558 152.428Z" fill="#FFB100"/><path fill-rule="evenodd" clip-rule="evenodd" d="M73.1783 95.7263C71.102 95.7263 69.4249 97.3987 69.4249 99.4692V104.088C69.4249 106.159 71.102 107.831 73.1783 107.831C75.2546 107.831 76.9317 106.159 76.9317 104.088V99.3896C76.9317 97.3987 75.2546 95.7263 73.1783 95.7263Z" fill="#4B4B4B"/><path fill-rule="evenodd" clip-rule="evenodd" d="M93.223 95.7263C91.1466 95.7263 89.4696 97.3987 89.4696 99.4692V104.088C89.4696 106.159 91.1466 107.831 93.223 107.831C95.2993 107.831 96.9764 106.159 96.9764 104.088V99.3896C96.8965 97.3987 95.2195 95.7263 93.223 95.7263Z" fill="#4B4B4B"/><path fill-rule="evenodd" clip-rule="evenodd" d="M83.1606 100.425C84.4384 100.425 85.5564 101.38 85.6363 102.734L86.6744 115.396C86.8342 117.308 85.3967 119.06 83.4801 119.219C83.4002 119.219 83.3204 119.219 83.1606 119.219C81.244 119.219 79.6469 117.626 79.6469 115.715C79.6469 115.635 79.6469 115.556 79.6469 115.396L80.685 102.734C80.8447 101.38 81.8829 100.425 83.1606 100.425Z" fill="#8D4D2B"/><path fill-rule="evenodd" clip-rule="evenodd" d="M83.1607 110.539C85.796 110.539 87.8723 112.609 87.8723 115.237C87.8723 117.865 85.796 119.936 83.1607 119.936C80.5253 119.936 78.449 117.865 78.449 115.237C78.449 112.689 80.6052 110.539 83.1607 110.539Z" fill="#8D4D2B"/><path fill-rule="evenodd" clip-rule="evenodd" d="M65.7514 46.033C70.3833 46.033 74.2165 49.7759 74.2165 54.4744V79.4803C74.2165 84.0992 70.4631 87.9218 65.7514 87.9218C61.1196 87.9218 57.2864 84.1789 57.2864 79.4803V54.4744C57.2864 49.7759 61.0398 46.033 65.7514 46.033Z" fill="#3D3D3D"/><path fill-rule="evenodd" clip-rule="evenodd" d="M74.536 139.526H90.6675V153.622H74.536V139.526Z" fill="#A56644"/><path d="M17.0375 78.684C21.7492 62.2788 28.617 50.413 37.6411 43.0864" stroke="#3D3D3D" stroke-width="22.6075" stroke-linecap="round" stroke-linejoin="round"/><path fill-rule="evenodd" clip-rule="evenodd" d="M114.785 96.8411C117.899 96.8411 120.455 99.3894 120.455 102.495V108.388C120.455 111.494 117.899 114.043 114.785 114.043C111.67 114.043 109.115 111.494 109.115 108.388V102.575C109.115 99.3894 111.67 96.8411 114.785 96.8411Z" fill="#A56644"/><path fill-rule="evenodd" clip-rule="evenodd" d="M50.8178 96.8411C53.9323 96.8411 56.4878 99.3894 56.4878 102.495V108.388C56.4878 111.494 53.9323 114.043 50.8178 114.043C47.7033 114.043 45.1478 111.494 45.1478 108.388V102.575C45.1478 99.3894 47.7033 96.8411 50.8178 96.8411Z" fill="#A56644"/><path fill-rule="evenodd" clip-rule="evenodd" d="M68.3069 141.836H98.1742C99.2922 141.836 100.171 142.712 100.171 143.827V159.834C100.171 160.948 99.2922 161.824 98.1742 161.824H68.3069C67.1889 161.824 66.3104 160.948 66.3104 159.834V143.827C66.3104 142.712 67.1889 141.836 68.3069 141.836Z" fill="#FFB100"/><path fill-rule="evenodd" clip-rule="evenodd" d="M135.396 311.176H107.126C104.97 311.176 103.213 312.928 103.213 315.078C103.213 317.228 104.97 318.98 107.126 318.98H135.396C137.552 318.98 139.309 317.228 139.309 315.078C139.309 312.928 137.552 311.176 135.396 311.176Z" fill="#FF4B4B"/><path fill-rule="evenodd" clip-rule="evenodd" d="M116.948 294.373H104.091C102.813 294.373 101.775 295.408 101.775 296.682C101.775 296.841 101.775 297.001 101.855 297.16L104.89 312.769C105.129 313.884 106.088 314.68 107.206 314.68H119.983C121.261 314.68 122.299 313.645 122.299 312.371C122.299 312.211 122.299 312.052 122.219 311.893L119.184 296.284C119.025 295.169 118.066 294.373 116.948 294.373Z" fill="#FF4B4B"/><path fill-rule="evenodd" clip-rule="evenodd" d="M83.1681 311.176H60.8076C58.6514 311.176 56.8945 312.928 56.8945 315.078C56.8945 317.228 58.6514 318.98 60.8076 318.98H83.1681C85.3243 318.98 87.0812 317.228 87.0812 315.078C87.0812 312.928 85.3243 311.176 83.1681 311.176Z" fill="#FF4B4B"/><path fill-rule="evenodd" clip-rule="evenodd" d="M81.6508 294.771H68.7136C67.4359 294.771 66.3977 295.806 66.3977 297.08C66.3977 297.08 66.3977 297.08 66.3977 297.16L66.6373 312.45C66.6373 313.724 67.6754 314.76 68.9532 314.76H81.9702C83.248 314.76 84.2861 313.724 84.2861 312.45C84.2861 312.45 84.2861 312.45 84.2861 312.371L83.9667 297.16C83.9667 295.806 82.9285 294.771 81.6508 294.771Z" fill="#FF4B4B"/><path fill-rule="evenodd" clip-rule="evenodd" d="M63.1234 191.164H86.1229L89.4769 288.718C89.5568 291.346 87.5603 293.497 84.925 293.576C84.8451 293.576 84.8451 293.576 84.7653 293.576H67.5157C64.8803 293.576 62.804 291.506 62.804 288.878L63.1234 191.164Z" fill="#1CB0F6"/><path fill-rule="evenodd" clip-rule="evenodd" d="M103.133 191.164H80.0535L96.5843 289.674C96.9836 291.904 98.9002 293.576 101.216 293.576H118.546C121.181 293.576 123.257 291.506 123.257 288.878C123.257 288.559 123.257 288.241 123.177 287.922L103.133 191.164Z" fill="#1CB0F6"/><path fill-rule="evenodd" clip-rule="evenodd" d="M60.8075 280.675H86.6819C88.8381 280.675 90.595 282.427 90.595 284.577V293.974C90.595 296.125 88.8381 297.877 86.6819 297.877H60.8075C58.6513 297.877 56.8944 296.125 56.8944 293.974V284.577C56.8944 282.427 58.6513 280.675 60.8075 280.675Z" fill="#42C2FF"/><path fill-rule="evenodd" clip-rule="evenodd" d="M96.9038 280.675H122.858C125.014 280.675 126.771 282.427 126.771 284.577V293.974C126.771 296.125 125.014 297.877 122.858 297.877H96.9837C94.8275 297.877 93.0706 296.125 93.0706 293.974V284.577C92.9907 282.427 94.7476 280.675 96.9038 280.675Z" fill="#42C2FF"/><path opacity="0.7416" fill-rule="evenodd" clip-rule="evenodd" d="M63.5953 193.52H104.483C105.042 193.52 105.521 193.918 105.601 194.476L106.719 199.572C106.879 200.209 106.48 200.847 105.841 201.006C105.761 201.006 105.681 201.006 105.601 201.006H63.5953C62.9565 201.006 62.3975 200.448 62.3975 199.811V194.715C62.3975 193.998 62.8766 193.52 63.5953 193.52Z" fill="#3D3D3D"/><path fill-rule="evenodd" clip-rule="evenodd" d="M107.837 164.293L111.75 168.196C114.545 170.903 114.545 175.443 111.75 178.15L107.837 182.052C105.042 184.76 100.57 184.76 97.8549 182.052L93.9418 178.15C91.1467 175.443 91.1467 170.903 93.9418 168.196L97.8549 164.293C100.57 161.586 105.042 161.586 107.837 164.293Z" fill="#A56644"/><path fill-rule="evenodd" clip-rule="evenodd" d="M49.061 164.214L55.7691 156.091C56.7275 154.896 58.4045 154.498 59.842 155.056L62.7967 156.25C66.2307 157.684 68.866 160.471 70.1438 163.895L71.9007 168.833C72.5395 170.664 71.5812 172.655 69.8243 173.372C69.425 173.531 69.0257 173.611 68.6264 173.611H57.2066C56.4879 173.611 55.849 173.372 55.29 173.053L49.8596 169.39C48.2624 168.355 47.7832 166.125 48.8214 164.532C48.9013 164.373 48.9811 164.293 49.061 164.214Z" fill="#A56644"/><path d="M62.3975 111.335C68.7063 112.848 73.0986 114.839 75.7339 117.228" stroke="#A56644" stroke-width="7.372"/><path fill-rule="evenodd" clip-rule="evenodd" d="M53.7725 154.737H58.4841C60.241 154.737 61.5987 156.17 61.5987 157.843C61.5987 159.595 60.1612 160.948 58.4841 160.948H53.7725C52.0156 160.948 50.658 159.515 50.658 157.843C50.5781 156.17 52.0156 154.737 53.7725 154.737Z" fill="#A56644"/></g><g clip-path="url(#clip1)"><path d="M273.312 191.462H241.766V319.005H273.312V191.462Z" fill="#434343"/><path fill-rule="evenodd" clip-rule="evenodd" d="M234.33 307.293H280.084C283.375 307.293 286.024 309.922 286.024 313.188C286.024 316.455 283.375 319.083 280.084 319.083H234.33C231.039 319.083 228.39 316.455 228.39 313.188C228.47 309.922 231.039 307.293 234.33 307.293Z" fill="#434343"/><path d="M225.231 62.3271C230.018 62.3271 233.9 58.475 233.9 53.7233C233.9 48.9716 230.018 45.1196 225.231 45.1196C220.443 45.1196 216.561 48.9716 216.561 53.7233C216.561 58.475 220.443 62.3271 225.231 62.3271Z" fill="#FFB5A1"/><path fill-rule="evenodd" clip-rule="evenodd" d="M289.928 62.3271C285.112 62.3271 281.259 58.5032 281.259 53.7233C281.259 48.9435 285.112 45.1196 289.928 45.1196C294.745 45.1196 298.597 48.9435 298.597 53.7233C298.597 58.5032 294.745 62.3271 289.928 62.3271Z" fill="#FFB5A1"/><path fill-rule="evenodd" clip-rule="evenodd" d="M257.351 22.0388C271.879 22.0388 283.599 33.6698 283.599 48.089V115.166H231.102V48.089C231.102 33.6698 242.902 22.0388 257.351 22.0388Z" fill="#FFB5A1"/><mask id="mask2" mask-type="alpha" maskUnits="userSpaceOnUse" x="231" y="22" width="53" height="94"><path fill-rule="evenodd" clip-rule="evenodd" d="M257.351 22.0388C271.879 22.0388 283.599 33.6698 283.599 48.089V115.166H231.102V48.089C231.102 33.6698 242.902 22.0388 257.351 22.0388Z" fill="white"/></mask><g mask="url(#mask2)"/><mask id="mask3" mask-type="alpha" maskUnits="userSpaceOnUse" x="231" y="22" width="53" height="94"><path fill-rule="evenodd" clip-rule="evenodd" d="M257.351 22.0388C271.879 22.0388 283.599 33.6698 283.599 48.089V115.166H231.102V48.089C231.102 33.6698 242.902 22.0388 257.351 22.0388Z" fill="white"/></mask><g mask="url(#mask3)"><path opacity="0.0960286" d="M285.927 74.4578H226.768V122.177H285.927V74.4578Z" fill="black"/></g><mask id="mask4" mask-type="alpha" maskUnits="userSpaceOnUse" x="231" y="22" width="53" height="94"><path fill-rule="evenodd" clip-rule="evenodd" d="M257.351 22.0388C271.879 22.0388 283.599 33.6698 283.599 48.089V115.166H231.102V48.089C231.102 33.6698 242.902 22.0388 257.351 22.0388Z" fill="white"/></mask><g mask="url(#mask4)"><path fill-rule="evenodd" clip-rule="evenodd" d="M231.102 45.3805L238.969 80.9107C239.129 81.548 238.728 82.1853 238.086 82.3446C238.006 82.3446 237.925 82.3446 237.845 82.3446H229.979C229.336 82.3446 228.775 81.787 228.775 81.1497V45.6195C228.775 44.9822 229.336 44.4246 229.979 44.4246C230.54 44.4246 231.022 44.8229 231.102 45.3805Z" fill="#A56644"/></g><mask id="mask5" mask-type="alpha" maskUnits="userSpaceOnUse" x="231" y="22" width="53" height="94"><path fill-rule="evenodd" clip-rule="evenodd" d="M257.351 22.0388C271.879 22.0388 283.599 33.6698 283.599 48.089V115.166H231.102V48.089C231.102 33.6698 242.902 22.0388 257.351 22.0388Z" fill="white"/></mask><g mask="url(#mask5)"><path fill-rule="evenodd" clip-rule="evenodd" d="M283.599 45.3805L275.733 80.9107C275.572 81.548 275.973 82.1853 276.615 82.3446C276.696 82.3446 276.776 82.3446 276.856 82.3446H284.723C285.365 82.3446 285.927 81.787 285.927 81.1497V45.6195C285.927 44.9822 285.365 44.4246 284.723 44.4246C284.241 44.4246 283.76 44.8229 283.599 45.3805Z" fill="#A56644"/></g><path fill-rule="evenodd" clip-rule="evenodd" d="M257.579 37.7107C258.703 37.7107 259.666 38.587 259.747 39.7023L261.994 65.9118C262.235 68.3017 260.389 70.3729 257.981 70.6119C257.82 70.6119 257.74 70.6119 257.579 70.6119C255.171 70.6119 253.245 68.7 253.245 66.3101C253.245 66.1508 253.245 66.0711 253.245 65.9118L255.492 39.7023C255.492 38.5073 256.456 37.7107 257.579 37.7107Z" fill="#E47A65"/><path fill-rule="evenodd" clip-rule="evenodd" d="M253.613 74.2701L247.111 78.0143C245.024 79.2093 244.302 81.8382 245.506 83.9094C246.71 85.9807 249.359 86.6977 251.446 85.5027L257.948 81.7585C260.035 80.5635 260.757 77.9346 259.553 75.8634C258.349 73.7921 255.7 73.0751 253.613 74.2701Z" fill="#A56644"/><path fill-rule="evenodd" clip-rule="evenodd" d="M261.721 74.2701L268.222 78.0143C270.309 79.2093 271.032 81.8382 269.828 83.9094C268.624 85.9807 265.975 86.6977 263.888 85.5027L257.386 81.7585C255.299 80.5635 254.577 77.9346 255.781 75.8634C256.985 73.7921 259.634 73.0751 261.721 74.2701Z" fill="#A56644"/><path fill-rule="evenodd" clip-rule="evenodd" d="M251.88 129.802L269.058 150.276C274.516 156.808 274.115 166.448 268.014 172.422L248.91 191.383C242.408 197.835 231.973 197.835 225.471 191.383C225.311 191.223 225.07 190.984 224.909 190.825L208.294 172.661C202.675 166.527 202.594 157.127 208.053 150.834L226.595 129.643C232.615 122.792 243.05 122.075 249.954 127.97C250.676 128.528 251.238 129.165 251.88 129.802Z" fill="#D8D8D8"/><path fill-rule="evenodd" clip-rule="evenodd" d="M263.118 129.802L245.94 150.276C240.482 156.808 240.883 166.448 246.984 172.422L266.088 191.383C272.59 197.835 283.025 197.835 289.527 191.383C289.687 191.223 289.928 190.984 290.089 190.825L306.705 172.661C312.324 166.527 312.404 157.127 306.945 150.834L288.403 129.643C282.383 122.792 271.948 122.075 265.045 127.97C264.322 128.528 263.68 129.165 263.118 129.802Z" fill="#D8D8D8"/><path fill-rule="evenodd" clip-rule="evenodd" d="M234.301 125.341H280.858C285.433 125.341 289.126 129.006 289.126 133.546V261.487C289.126 263.399 287.52 264.992 285.594 264.992H229.565C227.639 264.992 226.033 263.399 226.033 261.487V133.546C226.033 129.006 229.726 125.341 234.301 125.341Z" fill="#D8D8D8"/><path fill-rule="evenodd" clip-rule="evenodd" d="M246.925 35.3413C250.859 35.3413 253.989 38.5279 253.989 42.3517V49.3622C253.989 53.2657 250.778 56.3726 246.925 56.3726C242.992 56.3726 239.862 53.1861 239.862 49.3622V42.3517C239.781 38.5279 242.992 35.3413 246.925 35.3413Z" fill="white"/><path fill-rule="evenodd" clip-rule="evenodd" d="M268.037 35.3413C271.889 35.3413 274.94 38.4482 274.94 42.1924V49.6012C274.94 53.425 271.809 56.4523 268.037 56.4523C264.184 56.4523 261.133 53.3454 261.133 49.6012V42.1924C261.133 38.4482 264.184 35.3413 268.037 35.3413Z" fill="white"/><path fill-rule="evenodd" clip-rule="evenodd" d="M248.29 40.0415C246.444 40.0415 244.919 41.5551 244.919 43.3874V48.4859C244.919 50.3182 246.444 51.8318 248.29 51.8318C250.136 51.8318 251.661 50.3182 251.661 48.4859V43.3874C251.661 41.5551 250.136 40.0415 248.29 40.0415Z" fill="#4B4B4B"/><path fill-rule="evenodd" clip-rule="evenodd" d="M267.234 40.0415C265.388 40.0415 263.863 41.5551 263.863 43.3874V48.4859C263.863 50.3182 265.388 51.8318 267.234 51.8318C269.08 51.8318 270.605 50.3182 270.605 48.4859V43.3874C270.605 41.5551 269.08 40.0415 267.234 40.0415Z" fill="#4B4B4B"/><path fill-rule="evenodd" clip-rule="evenodd" d="M236.629 34.2053H278.45V47.8279H236.629V34.2053Z" fill="#FFB5A1"/><path fill-rule="evenodd" clip-rule="evenodd" d="M237.042 39.6169H247.718C251.652 39.6169 254.782 42.8035 254.782 46.6274V61.1262C254.782 65.0298 251.571 68.1367 247.718 68.1367H237.042C233.109 68.1367 229.979 64.9501 229.979 61.1262V46.6274C229.979 42.8035 233.109 39.6169 237.042 39.6169Z" fill="white" fill-opacity="0.3782" stroke="#87633F" stroke-width="3.9317"/><path fill-rule="evenodd" clip-rule="evenodd" d="M267.465 39.6169H278.141C282.074 39.6169 285.204 42.8035 285.204 46.6274V61.1262C285.204 65.0298 281.994 68.1367 278.141 68.1367H267.465C263.531 68.1367 260.401 64.9501 260.401 61.1262V46.6274C260.321 42.8035 263.531 39.6169 267.465 39.6169Z" fill="white" fill-opacity="0.3782" stroke="#87633F" stroke-width="3.9317"/><path fill-rule="evenodd" clip-rule="evenodd" d="M266.249 69.7358C266.249 72.3647 264.162 74.436 261.513 74.436H253.646C250.997 74.436 248.91 72.3647 248.91 69.7358C248.91 67.1069 250.997 65.0356 253.646 65.0356H261.513C264.162 65.1153 266.249 67.1866 266.249 69.7358Z" fill="#E47A65"/><path d="M257.339 162.146C260.929 162.146 263.84 159.257 263.84 155.693C263.84 152.129 260.929 149.24 257.339 149.24C253.748 149.24 250.837 152.129 250.837 155.693C250.837 159.257 253.748 162.146 257.339 162.146Z" fill="white"/><path d="M257.339 200.066C260.929 200.066 263.84 197.177 263.84 193.613C263.84 190.049 260.929 187.16 257.339 187.16C253.748 187.16 250.837 190.049 250.837 193.613C250.837 197.177 253.748 200.066 257.339 200.066Z" fill="white"/><path d="M245.706 22.0168H272.195C279.259 23.0525 282.791 26.717 282.791 33.0105" stroke="#3285BD" stroke-width="12.1592" stroke-linecap="round" stroke-linejoin="round"/><path d="M281.667 16.2014C284.504 16.2014 286.804 13.9187 286.804 11.1029C286.804 8.28707 284.504 6.00439 281.667 6.00439C278.829 6.00439 276.529 8.28707 276.529 11.1029C276.529 13.9187 278.829 16.2014 281.667 16.2014Z" fill="#3285BD"/><path fill-rule="evenodd" clip-rule="evenodd" d="M245.304 26.717L281.908 37.7106L282.791 26.3187L270.59 20.5032L245.304 26.717Z" fill="#3285BD"/><path fill-rule="evenodd" clip-rule="evenodd" d="M231.157 107.02L268.081 113.393L283.413 107.817C284.858 107.339 286.383 108.056 286.945 109.41C287.025 109.729 287.105 110.047 287.105 110.366V123.033C287.105 124.546 285.901 125.741 284.376 125.741H230.675C229.15 125.741 227.946 124.546 227.946 123.033V109.729C227.946 108.215 229.15 107.02 230.675 107.02C230.916 106.941 231.077 106.941 231.157 107.02Z" fill="#3285BD"/><path fill-rule="evenodd" clip-rule="evenodd" d="M266.797 116.898C265.994 117.456 265.432 123.59 268.402 127.653C271.372 131.716 277.553 132.991 278.195 132.513C278.918 132.035 279.56 125.821 276.59 121.758C273.62 117.695 267.6 116.341 266.797 116.898Z" fill="#3285BD"/><path fill-rule="evenodd" clip-rule="evenodd" d="M258.529 135.699C257.726 135.142 257.165 129.007 260.135 124.945C263.105 120.882 269.285 119.607 269.927 120.085C270.65 120.563 271.292 126.777 268.322 130.84C265.352 134.903 259.332 136.257 258.529 135.699Z" fill="#3285BD"/></g><g clip-path="url(#clip2)"><path fill-rule="evenodd" clip-rule="evenodd" d="M575.92 205.949C569.755 204.388 564.946 199.095 564.404 192.377C563.794 185.659 567.588 179.62 573.414 177.041L575.92 205.949Z" fill="#A56644" stroke="#A56644" stroke-width="5.8976" stroke-linecap="round" stroke-linejoin="round"/><path fill-rule="evenodd" clip-rule="evenodd" d="M613.912 5.70874H644.329C660.858 5.70874 674.813 17.7874 677.252 34.1412L710.65 259.769C713.359 277.955 700.759 294.919 682.604 297.633C680.978 297.905 679.352 297.973 677.726 297.973H580.515C562.156 297.973 547.253 283.044 547.253 264.654C547.253 263.026 547.388 261.397 547.592 259.769L580.989 34.2091C583.36 17.7874 597.383 5.70874 613.912 5.70874Z" fill="#A56644"/><mask id="mask6" mask-type="alpha" maskUnits="userSpaceOnUse" x="547" y="5" width="165" height="293"><path fill-rule="evenodd" clip-rule="evenodd" d="M613.912 5.70874H644.329C660.858 5.70874 674.813 17.7874 677.252 34.1412L710.65 259.769C713.359 277.955 700.759 294.919 682.604 297.633C680.978 297.905 679.352 297.973 677.726 297.973H580.515C562.156 297.973 547.253 283.044 547.253 264.654C547.253 263.026 547.388 261.397 547.592 259.769L580.989 34.2091C583.36 17.7874 597.383 5.70874 613.912 5.70874Z" fill="white"/></mask><g mask="url(#mask6)"><path fill-rule="evenodd" clip-rule="evenodd" d="M685.314 267.504C687.278 267.504 688.836 269.065 688.836 271.033V297.498H681.859V271.033C681.859 269.065 683.417 267.504 685.314 267.504Z" fill="#975D3C"/></g><mask id="mask7" mask-type="alpha" maskUnits="userSpaceOnUse" x="547" y="5" width="165" height="293"><path fill-rule="evenodd" clip-rule="evenodd" d="M613.912 5.70874H644.329C660.858 5.70874 674.813 17.7874 677.252 34.1412L710.65 259.769C713.359 277.955 700.759 294.919 682.604 297.633C680.978 297.905 679.352 297.973 677.726 297.973H580.515C562.156 297.973 547.253 283.044 547.253 264.654C547.253 263.026 547.388 261.397 547.592 259.769L580.989 34.2091C583.36 17.7874 597.383 5.70874 613.912 5.70874Z" fill="white"/></mask><g mask="url(#mask7)"><path fill-rule="evenodd" clip-rule="evenodd" d="M573.131 267.504C575.095 267.504 576.653 269.065 576.653 271.033V297.498H569.676V271.033C569.608 269.065 571.166 267.504 573.131 267.504Z" fill="#975D3C"/></g><path fill-rule="evenodd" clip-rule="evenodd" d="M637.024 27.686C640.818 27.686 643.867 30.7396 643.867 34.5397V41.8683C643.867 45.6684 640.818 48.722 637.024 48.722C633.231 48.722 630.182 45.6684 630.182 41.8683V34.5397C630.25 30.7396 633.299 27.686 637.024 27.686Z" fill="white"/><path fill-rule="evenodd" clip-rule="evenodd" d="M620.766 27.686C616.972 27.686 613.924 30.7396 613.924 34.5397V41.8683C613.924 45.6684 616.972 48.722 620.766 48.722C624.56 48.722 627.608 45.6684 627.608 41.8683V34.5397C627.54 30.7396 624.492 27.686 620.766 27.686Z" fill="white"/><path fill-rule="evenodd" clip-rule="evenodd" d="M621.714 33.3862C620.156 33.3862 618.869 34.6755 618.869 36.2363V41.597C618.869 43.1578 620.156 44.4471 621.714 44.4471C623.272 44.4471 624.56 43.1578 624.56 41.597V36.2363C624.56 34.6755 623.272 33.3862 621.714 33.3862Z" fill="#4B4B4B"/><path fill-rule="evenodd" clip-rule="evenodd" d="M635.737 33.7253C634.179 33.7253 632.892 35.0146 632.892 36.5754V41.2576C632.892 42.8183 634.179 44.1076 635.737 44.1076C637.295 44.1076 638.583 42.8183 638.583 41.2576V36.5754C638.515 34.9468 637.295 33.7253 635.737 33.7253Z" fill="#4B4B4B"/><path fill-rule="evenodd" clip-rule="evenodd" d="M627.744 53.3364H631.063C637.567 53.3364 642.851 58.6293 642.851 65.1437V99.4798C642.851 105.994 637.567 111.287 631.063 111.287H627.744C621.24 111.287 615.956 105.994 615.956 99.4798V65.2116C615.889 58.6972 621.173 53.3364 627.744 53.3364Z" fill="#E5A259"/><path fill-rule="evenodd" clip-rule="evenodd" d="M627.54 53.3364H631.198C633.976 53.3364 636.211 55.5757 636.211 58.3579C636.211 61.1401 633.976 63.3794 631.198 63.3794H627.54C624.763 63.3794 622.527 61.1401 622.527 58.3579C622.527 55.5757 624.831 53.3364 627.54 53.3364Z" fill="#4B4B4B"/><path d="M629.234 23.6824H608.234V39.3575H629.234V23.6824Z" fill="#A56644"/><path d="M649.218 19.6787H628.218V30.6717H649.218V19.6787Z" fill="#A56644"/><path fill-rule="evenodd" clip-rule="evenodd" d="M574.768 1.8321C577.681 -0.814363 582.22 -0.610789 584.862 2.37496L586.894 4.61427C589.536 7.53216 589.333 12.0786 586.352 14.7251C583.439 17.3716 578.901 17.168 576.259 14.1822L574.226 11.9429C571.652 9.02503 571.855 4.47855 574.768 1.8321Z" fill="#A56644"/><path fill-rule="evenodd" clip-rule="evenodd" d="M683.767 1.8321C680.854 -0.814363 676.316 -0.610789 673.674 2.37496L671.641 4.61427C668.999 7.53216 669.202 12.0786 672.183 14.7251C675.096 17.3716 679.635 17.168 682.277 14.1822L684.309 11.9429C686.951 9.02503 686.68 4.47855 683.767 1.8321Z" fill="#A56644"/><path fill-rule="evenodd" clip-rule="evenodd" d="M622.468 200.989C618.81 193.524 620.097 184.296 626.329 178.053C632.562 171.81 641.775 170.588 649.227 174.185L622.468 200.989Z" fill="#BB7149" stroke="#BB7149" stroke-width="7.6669" stroke-linecap="round" stroke-linejoin="round"/><path fill-rule="evenodd" clip-rule="evenodd" d="M635.339 200.99C638.998 193.526 637.71 184.297 631.478 178.054C625.313 171.879 616.033 170.59 608.581 174.186L635.339 200.99Z" fill="#BB7149" stroke="#BB7149" stroke-width="7.6669" stroke-linecap="round" stroke-linejoin="round"/><path fill-rule="evenodd" clip-rule="evenodd" d="M628.836 194.881C628.497 190.674 625.381 186.874 620.91 185.652C616.439 184.431 611.833 186.195 609.394 189.656L628.836 194.881Z" fill="#BB7149" stroke="#BB7149" stroke-width="7.6669" stroke-linecap="round" stroke-linejoin="round"/><path fill-rule="evenodd" clip-rule="evenodd" d="M629.446 194.881C629.785 190.674 632.901 186.874 637.372 185.652C641.843 184.431 646.449 186.195 648.888 189.656L629.446 194.881Z" fill="#BB7149" stroke="#BB7149" stroke-width="7.6669" stroke-linecap="round" stroke-linejoin="round"/><path fill-rule="evenodd" clip-rule="evenodd" d="M620.088 85.0259C622.188 85.0259 623.95 86.7223 623.95 88.8938V92.6938H616.227V88.8938C616.227 86.7223 617.988 85.0259 620.088 85.0259Z" fill="white"/><path fill-rule="evenodd" clip-rule="evenodd" d="M634.552 293.987H666.527C668.763 293.987 670.524 295.751 670.524 297.991V314.955C670.524 317.195 668.763 318.959 666.527 318.959H634.552C632.317 318.959 630.555 317.195 630.555 314.955V297.991C630.555 295.751 632.317 293.987 634.552 293.987Z" fill="#A56644"/><path fill-rule="evenodd" clip-rule="evenodd" d="M591.264 293.987H623.239C625.475 293.987 627.236 295.751 627.236 297.991V314.955C627.236 317.195 625.475 318.959 623.239 318.959H591.264C589.029 318.959 587.267 317.195 587.267 314.955V297.991C587.267 295.751 589.096 293.987 591.264 293.987Z" fill="#A56644"/></g><g clip-path="url(#clip3)"><path fill-rule="evenodd" clip-rule="evenodd" d="M482.67 137.585L484.322 137.008C490.678 134.839 497.596 138.173 499.844 144.547L500.42 146.202C502.588 152.569 499.261 159.496 492.904 161.665L491.252 162.242C484.896 164.411 477.978 161.077 475.731 154.703L475.154 153.048C472.986 146.682 476.313 139.754 482.67 137.585Z" fill="#4B4B4B"/><path fill-rule="evenodd" clip-rule="evenodd" d="M488.19 154.196L471.433 142.458C466.682 139.073 460.012 140.252 456.706 145.096C453.328 149.852 454.514 156.454 459.265 159.838L476.022 171.576C480.772 174.961 487.443 173.782 490.749 168.938C494.134 164.102 492.947 157.501 488.19 154.196Z" fill="#4B4B4B"/><path fill-rule="evenodd" clip-rule="evenodd" d="M472.697 159.171L479.345 143.551C481.659 138.139 487.806 135.63 493.21 137.949C498.615 140.269 501.122 146.425 498.807 151.837L492.159 167.457C489.844 172.869 483.698 175.378 478.294 173.058C472.882 170.819 470.382 164.583 472.697 159.171Z" fill="#4B4B4B"/><path fill-rule="evenodd" clip-rule="evenodd" d="M481.396 143.006L488.554 126.147C490.373 121.815 495.437 119.772 499.764 121.596L499.843 121.603C504.242 123.513 506.276 128.665 504.37 133.07L497.213 149.929C495.393 154.262 490.329 156.304 486.003 154.48L485.923 154.473C481.531 152.483 479.57 147.418 481.396 143.006Z" fill="#DB8E73"/><path fill-rule="evenodd" clip-rule="evenodd" d="M383.42 216.334L395.708 173.542C397.303 167.948 403.181 164.624 408.773 166.299C414.359 167.895 417.676 173.78 416.002 179.382L403.714 222.173C403.027 224.4 400.739 225.723 398.444 225.123L386.204 221.625C384.061 220.93 382.733 218.56 383.42 216.334Z" fill="#DB8E73"/><path fill-rule="evenodd" clip-rule="evenodd" d="M382.524 217.246L377.769 223.358C375.033 226.887 375.635 231.967 379.165 234.785L385.267 239.542C388.79 242.28 393.863 241.674 396.68 238.138L401.434 232.026C404.171 228.497 403.568 223.417 400.038 220.599L393.936 215.842C390.334 213.111 385.26 213.717 382.524 217.246Z" fill="#DB8E73"/><path fill-rule="evenodd" clip-rule="evenodd" d="M389.756 194.439L402.044 151.647C403.639 146.053 409.517 142.729 415.11 144.404C420.696 146 424.013 151.885 422.338 157.487L410.05 200.278C409.363 202.505 407.076 203.828 404.781 203.228L392.54 199.73C390.397 199.035 389.076 196.745 389.756 194.439Z" fill="#4B4B4B"/><path fill-rule="evenodd" clip-rule="evenodd" d="M394.999 183.926L405.45 187.123C408.801 188.162 410.716 191.678 409.679 195.035L408.562 198.711C407.525 202.068 404.014 203.986 400.664 202.947L390.213 199.75C386.862 198.711 384.947 195.195 385.985 191.838L387.101 188.162C388.139 184.805 391.649 182.887 394.999 183.926Z" fill="#4B4B4B"/><path fill-rule="evenodd" clip-rule="evenodd" d="M433.97 185.15H439.156C461.733 185.15 480.002 203.452 480.002 226.069C480.002 230.704 479.205 235.26 477.689 239.655L453.436 308.705H418.174L395.198 238.856C388.178 217.438 399.825 194.261 421.206 187.228C425.354 185.869 429.662 185.15 433.97 185.15Z" fill="#FFBEBE"/><mask id="mask8" mask-type="alpha" maskUnits="userSpaceOnUse" x="393" y="185" width="88" height="124"><path fill-rule="evenodd" clip-rule="evenodd" d="M433.97 185.15H439.156C461.733 185.15 480.002 203.452 480.002 226.069C480.002 230.704 479.205 235.26 477.689 239.655L453.436 308.705H418.174L395.198 238.856C388.178 217.438 399.825 194.261 421.206 187.228C425.354 185.869 429.662 185.15 433.97 185.15Z" fill="white"/></mask><g mask="url(#mask8)"><path d="M404.058 318.582L462.354 328.876L467.118 301.802L408.822 291.508L404.058 318.582Z" fill="#DB8E73"/></g><path fill-rule="evenodd" clip-rule="evenodd" d="M411.354 308.6H459.7C462.651 308.6 464.965 310.998 464.965 313.875C464.965 316.832 462.572 319.149 459.7 319.149H411.354C408.402 319.149 406.089 316.752 406.089 313.875C406.089 310.998 408.482 308.6 411.354 308.6Z" fill="#4B4B4B"/><path fill-rule="evenodd" clip-rule="evenodd" d="M418.245 139.879H453.188C460.049 139.879 466.033 144.514 467.788 151.147L474.25 175.443C476.244 182.955 471.777 190.707 464.278 192.785C463.081 193.105 461.884 193.265 460.608 193.265H412.182C404.364 193.265 398.062 186.951 398.062 179.119C398.062 178.16 398.141 177.201 398.381 176.242L403.407 152.026C404.922 144.914 411.065 139.879 418.245 139.879Z" fill="#4B4B4B"/><path fill-rule="evenodd" clip-rule="evenodd" d="M435.367 47.0244C454.035 47.0244 469.193 62.2091 469.193 80.9102V141.009C469.193 159.711 454.035 174.895 435.367 174.895C416.699 174.895 401.541 159.711 401.541 141.009V80.9102C401.461 62.2091 416.619 47.0244 435.367 47.0244Z" fill="#FFBEBE"/><path d="M417.337 114.077C429.065 131.259 445.499 137.333 466.64 132.378" stroke="#F2A9A9" stroke-width="6.1925" stroke-linecap="round" stroke-linejoin="round"/><path fill-rule="evenodd" clip-rule="evenodd" d="M435.409 58.4973C449.45 58.4973 460.858 69.9258 460.858 83.9915V100.535C460.858 114.601 449.45 126.029 435.409 126.029C421.368 126.029 409.96 114.601 409.96 100.535V83.9915C410.039 69.8458 421.448 58.4973 435.409 58.4973Z" fill="#DB8E73"/><path fill-rule="evenodd" clip-rule="evenodd" d="M446.987 72.9531C451.774 72.9531 455.603 76.7892 455.603 81.5844V88.3775C455.603 93.1727 451.774 97.0088 446.987 97.0088C442.2 97.0088 438.371 93.1727 438.371 88.3775V81.5844C438.291 76.7892 442.2 72.9531 446.987 72.9531Z" fill="white"/><path fill-rule="evenodd" clip-rule="evenodd" d="M423.931 72.9531C419.144 72.9531 415.315 76.7892 415.315 81.5844V88.3775C415.315 93.1727 419.144 97.0088 423.931 97.0088C428.718 97.0088 432.547 93.1727 432.547 88.3775V81.5844C432.547 76.7892 428.718 72.9531 423.931 72.9531Z" fill="white"/><path fill-rule="evenodd" clip-rule="evenodd" d="M425.447 79.0271C423.452 79.0271 421.777 80.6255 421.777 82.7034V87.2588C421.777 89.2568 423.373 90.9351 425.447 90.9351C427.441 90.9351 429.117 89.3367 429.117 87.2588V82.7034C429.117 80.7054 427.521 79.0271 425.447 79.0271Z" fill="#4B4B4B"/><path fill-rule="evenodd" clip-rule="evenodd" d="M445.072 79.0271C443.078 79.0271 441.402 80.6255 441.402 82.7034V87.2588C441.402 89.2568 442.998 90.9351 445.072 90.9351C447.067 90.9351 448.742 89.3367 448.742 87.2588V82.7034C448.662 80.7054 447.067 79.0271 445.072 79.0271Z" fill="#4B4B4B"/><path fill-rule="evenodd" clip-rule="evenodd" d="M436.765 87.348L437.802 96.3789C437.962 97.6576 437.005 98.8564 435.728 98.9363C435.648 98.9363 435.569 98.9363 435.489 98.9363C434.212 98.9363 433.175 97.8973 433.175 96.6186C433.175 96.5387 433.175 96.4588 433.175 96.3789L434.212 87.348C434.292 86.6287 434.93 86.0693 435.648 86.1492C436.207 86.2291 436.685 86.7086 436.765 87.348Z" fill="#B4654A"/><path fill-rule="evenodd" clip-rule="evenodd" d="M435.249 93.1821H435.728C437.962 93.1821 439.797 95.0203 439.797 97.258C439.797 99.4958 437.962 101.334 435.728 101.334H435.249C433.016 101.334 431.181 99.4958 431.181 97.258C431.101 95.0203 432.936 93.1821 435.249 93.1821Z" fill="#B4654A"/><path fill-rule="evenodd" clip-rule="evenodd" d="M433.095 105.41C436.286 105.01 438.6 104.611 440.036 104.051C441.472 103.492 443.466 102.373 445.94 100.695L446.418 100.375L446.897 101.654C448.333 105.49 446.338 109.805 442.429 111.244C438.6 112.683 434.292 110.685 432.936 106.848L432.457 105.57L433.095 105.41Z" fill="white" stroke="white" stroke-width="1.2" stroke-linecap="round" stroke-linejoin="round"/><path fill-rule="evenodd" clip-rule="evenodd" d="M418.454 193.197H422.363C423.002 193.197 423.56 193.756 423.56 194.395V205.025C423.56 205.664 423.002 206.223 422.363 206.223H418.454C417.816 206.223 417.258 205.664 417.258 205.025V194.315C417.258 193.676 417.816 193.197 418.454 193.197Z" fill="#F2A9A9"/><path fill-rule="evenodd" clip-rule="evenodd" d="M449.568 193.197H453.477C454.115 193.197 454.674 193.756 454.674 194.395V205.025C454.674 205.664 454.115 206.223 453.477 206.223H449.568C448.93 206.223 448.371 205.664 448.371 205.025V194.315C448.451 193.676 448.93 193.197 449.568 193.197Z" fill="#F2A9A9"/><path fill-rule="evenodd" clip-rule="evenodd" d="M501.343 121.943L502.307 122.722C505.936 125.566 506.566 130.832 503.73 134.464C500.894 138.095 495.636 138.722 492.007 135.879L491.043 135.099C487.414 132.255 486.783 126.989 489.62 123.358C492.529 119.759 497.714 119.099 501.343 121.943Z" fill="#DB8E73"/><path fill-rule="evenodd" clip-rule="evenodd" d="M490.334 131.197L487.016 115.461C486.481 113.124 488.021 110.837 490.355 110.304C492.688 109.771 494.973 111.315 495.507 113.653L498.825 129.389C499.36 131.726 497.82 134.012 495.486 134.545C493.112 134.973 490.795 133.501 490.334 131.197Z" fill="#DB8E73"/><path fill-rule="evenodd" clip-rule="evenodd" d="M492.176 119.771L502.704 107.676C504.301 105.852 507.007 105.66 508.83 107.261C510.653 108.861 510.847 111.572 509.25 113.396L498.722 125.491C497.125 127.314 494.418 127.506 492.596 125.906C490.773 124.305 490.579 121.595 492.176 119.771Z" fill="#DB8E73"/><path fill-rule="evenodd" clip-rule="evenodd" d="M499.538 119.906L513.581 112.091C515.671 110.925 518.312 111.667 519.479 113.761C520.645 115.856 519.907 118.5 517.816 119.666L503.774 127.48C501.683 128.646 499.042 127.905 497.876 125.81C496.71 123.716 497.448 121.072 499.538 119.906Z" fill="#DB8E73"/><path fill-rule="evenodd" clip-rule="evenodd" d="M496.708 124.506L512.707 123.688C515.129 123.545 517.106 125.388 517.251 127.814C517.396 130.24 515.557 132.217 513.135 132.361L497.135 133.179C494.713 133.322 492.737 131.478 492.591 129.053C492.487 126.732 494.286 124.649 496.708 124.506Z" fill="#DB8E73"/></g><defs><clipPath id="clip0"><rect width="144" height="298" fill="white" transform="translate(0 21)"/></clipPath><clipPath id="clip1"><rect width="107" height="313" fill="white" transform="translate(204 6)"/></clipPath><clipPath id="clip2"><rect width="172" height="319" fill="white" transform="translate(539)"/></clipPath><clipPath id="clip3"><rect width="144" height="277" fill="white" transform="translate(376 47)"/></clipPath></defs></svg>