<svg version="1.1" id="Layer_1" xmlns="http://www.w3.org/2000/svg" xmlns:xlink="http://www.w3.org/1999/xlink" x="0px" y="0px"
	 width="100%" viewBox="0 0 932 878" enable-background="new 0 0 932 878" xml:space="preserve">
<path fill="#8A6BC8" opacity="1.000000" stroke="none" 
	d="
M56.999996,879.000000 
	C38.336155,879.000000 19.672308,879.000000 1.006346,879.000000 
	C1.004231,586.380371 1.004231,293.760742 1.004231,1.070563 
	C311.572693,1.070563 622.145386,1.070563 932.859009,1.070563 
	C932.859009,293.666626 932.859009,586.333313 932.859009,879.000000 
	C915.917297,879.000000 898.919861,879.000000 881.379028,878.633423 
	C871.026550,848.746216 861.427917,819.153687 851.361877,789.720947 
	C834.288574,739.799316 799.261536,707.827209 749.949219,691.462219 
	C733.493530,686.001038 715.976501,683.737854 698.797974,679.841553 
	C698.117737,679.728638 697.584106,679.786987 696.633240,679.861084 
	C693.134216,679.560425 690.052551,679.244141 686.809814,678.772217 
	C686.114746,678.689270 685.580566,678.761902 684.585327,678.869385 
	C680.765747,678.706055 677.407227,678.507751 673.924805,677.965027 
	C673.534729,675.492371 673.055603,673.365784 673.038757,671.235535 
	C672.958252,661.077820 673.053833,650.918579 672.959229,640.761108 
	C672.941284,638.831238 672.346741,636.906799 671.962280,634.759766 
	C671.906250,634.539673 671.993347,634.093811 672.000183,633.836609 
	C672.054382,633.414612 672.101746,633.249817 672.355591,632.721436 
	C672.714233,630.378967 672.998413,628.400146 672.999329,626.421265 
	C673.022156,577.640076 673.014709,528.858948 673.014404,480.077759 
	C673.014404,478.412964 672.530884,476.514984 673.169983,475.144073 
	C673.919006,473.537689 675.492920,472.154755 677.014526,471.127075 
	C678.010681,470.454315 679.548767,470.584045 681.231445,470.329102 
	C682.133179,470.349701 682.647583,470.395538 683.277466,470.538544 
	C683.556030,470.752899 683.730225,470.850403 684.327271,470.951904 
	C688.865479,469.812134 693.109192,468.954010 697.094543,467.423309 
	C706.062561,463.978851 713.283508,458.181946 718.033447,449.762787 
	C726.462219,434.823029 726.477966,419.631866 717.051270,405.343994 
	C707.430359,390.761810 693.327637,384.511566 675.827148,386.830933 
	C672.330750,387.294342 670.802795,386.325958 671.223633,382.427917 
	C671.588684,379.920532 671.960999,377.779510 671.963928,375.637970 
	C672.002991,347.310760 672.209900,318.980743 671.856995,290.657867 
	C671.750366,282.101776 670.626160,273.452179 668.958130,265.045776 
	C666.238220,251.338074 659.100525,239.605316 649.748474,229.480438 
	C637.956177,216.713699 623.477966,208.242081 606.316284,204.398163 
	C603.257507,203.713058 599.564026,201.659058 598.017761,199.111649 
	C588.590759,183.581253 576.824585,170.447159 562.230408,159.513504 
	C546.380005,147.638718 528.554871,140.744705 509.414307,137.387848 
	C489.782288,133.944778 470.079132,136.103271 451.119446,141.546860 
	C429.262238,147.822372 409.003845,157.862595 391.626343,172.925095 
	C389.116547,175.100510 387.559143,174.602539 385.982147,172.297592 
	C384.387299,169.966446 383.050537,167.456787 381.426392,165.147980 
	C377.957886,160.217361 372.507904,159.182037 369.338776,163.519623 
	C365.968658,168.132263 363.143494,173.360428 361.216705,178.727753 
	C360.081329,181.890366 358.962585,183.087555 355.817169,183.027222 
	C350.654510,182.928192 345.478943,182.855804 340.324829,183.103882 
	C332.555511,183.477829 329.301880,189.516388 333.086823,196.231903 
	C334.260071,198.313599 335.503021,200.355972 337.021729,202.939758 
	C334.438354,203.616821 332.566223,204.125183 330.685059,204.597717 
	C315.352081,208.449295 301.819611,215.750336 290.760590,226.979568 
	C274.289154,243.704514 266.124756,264.115570 266.029938,287.590729 
	C265.909454,317.417145 265.997925,347.244537 266.056274,377.071381 
	C266.060089,379.019501 266.574768,380.966675 266.829742,383.327576 
	C267.115326,386.925690 265.324585,387.076111 262.759430,386.931335 
	C258.305511,386.679962 253.760910,386.325500 249.372726,386.907257 
	C227.579880,389.796448 212.252899,409.590302 214.097885,432.252838 
	C215.856186,453.850952 234.612152,470.026276 256.461700,470.958923 
	C264.986023,471.077667 264.991882,471.077667 264.991608,478.937958 
	C264.989777,528.044739 264.973572,577.151550 265.018402,626.258301 
	C265.020477,628.533752 265.561127,630.808594 265.920410,633.330444 
	C265.992920,633.747864 265.995972,633.918701 266.039856,634.312622 
	C266.080688,634.535583 265.965302,634.974060 265.738281,635.322510 
	C265.338837,647.476990 265.328247,659.289490 264.862549,671.083923 
	C264.764954,673.555603 262.991028,675.961121 261.535034,678.502258 
	C255.352280,678.922119 249.624039,679.236755 243.668365,679.427612 
	C242.644592,679.462891 241.848267,679.621826 240.710342,679.871094 
	C239.898895,679.973083 239.429047,679.984741 238.761353,679.809448 
	C237.700317,679.898804 236.837128,680.175293 235.609497,680.565735 
	C234.485046,680.729309 233.725006,680.778931 232.853485,680.743286 
	C232.441498,680.574951 232.203323,680.666809 231.625610,681.013794 
	C211.270004,684.287659 191.706985,688.803833 173.081009,696.972900 
	C133.347015,714.399719 104.261345,742.445129 89.192116,783.371155 
	C77.575180,814.921143 67.667603,847.100464 56.999996,879.000000 
z"/>
<path fill="#424242" opacity="1.000000" stroke="none" 
	d="
M57.468655,879.000000 
	C67.667603,847.100464 77.575180,814.921143 89.192116,783.371155 
	C104.261345,742.445129 133.347015,714.399719 173.081009,696.972900 
	C191.706985,688.803833 211.270004,684.287659 231.865250,681.036133 
	C232.506744,680.978088 232.964981,680.828552 232.964981,680.828552 
	C233.725006,680.778931 234.485046,680.729309 235.913910,680.655396 
	C237.374878,680.419556 238.167023,680.208008 238.959183,679.996460 
	C239.429047,679.984741 239.898895,679.973083 241.068771,679.924683 
	C242.477798,679.775879 243.186813,679.663635 243.895813,679.551392 
	C249.624039,679.236755 255.352280,678.922119 261.922211,678.619751 
	C266.032928,679.025818 266.092499,676.852112 266.083466,674.546997 
	C266.031860,661.356018 266.002350,648.165039 265.965302,634.974060 
	C265.965302,634.974060 266.080688,634.535583 266.311829,634.327820 
	C266.713898,634.058716 266.884857,633.997437 267.514648,634.017944 
	C399.630463,634.112061 531.287415,634.125610 662.944336,634.128540 
	C665.605652,634.128601 668.266968,634.004517 671.187317,634.029724 
	C671.628662,634.111938 671.811035,634.102844 671.993347,634.093811 
	C671.993347,634.093811 671.906250,634.539673 671.929565,635.229858 
	C671.942871,648.524231 671.860229,661.129272 672.016724,673.731323 
	C672.035767,675.265564 673.340149,676.783813 674.048767,678.309448 
	C677.407227,678.507751 680.765747,678.706055 684.900818,678.947327 
	C686.108582,678.969543 686.539673,678.948669 686.970825,678.927856 
	C690.052551,679.244141 693.134216,679.560425 696.939331,679.961426 
	C698.089966,680.034973 698.517334,680.023865 698.944641,680.012756 
	C715.976501,683.737854 733.493530,686.001038 749.949219,691.462219 
	C799.261536,707.827209 834.288574,739.799316 851.361877,789.720947 
	C861.427917,819.153687 871.026550,848.746216 880.917725,878.633423 
	C606.645752,879.000000 332.291534,879.000000 57.468655,879.000000 
z"/>
<path fill="#FAE4D9" opacity="1.000000" stroke="none" 
	d="
M670.928284,633.938354 
	C668.266968,634.004517 665.605652,634.128601 662.944336,634.128540 
	C531.287415,634.125610 399.630463,634.112061 267.503967,633.553589 
	C267.028320,580.991028 267.033142,528.974487 266.979523,476.958038 
	C266.977173,474.689301 266.438660,472.421051 265.896820,469.896332 
	C262.437317,470.073578 259.230957,470.507050 256.024567,470.940552 
	C234.612152,470.026276 215.856186,453.850952 214.097885,432.252838 
	C212.252899,409.590302 227.579880,389.796448 249.372726,386.907257 
	C253.760910,386.325500 258.305511,386.679962 262.759430,386.931335 
	C265.324585,387.076111 267.115326,386.925690 267.232147,383.229248 
	C271.771667,381.791412 275.886688,380.865234 280.299103,380.102600 
	C286.153015,388.399414 293.818329,392.688416 303.491577,392.459259 
	C303.491577,402.242188 303.455933,411.542328 303.500580,420.842072 
	C303.556213,432.433136 305.121826,443.767578 309.922516,454.436401 
	C323.217468,483.982635 352.975037,502.832672 387.158417,500.317230 
	C419.996155,497.900757 448.531067,472.162384 455.118073,442.390472 
	C457.336548,432.363464 458.723663,431.362854 469.088409,431.544556 
	C472.060822,431.596649 475.022064,432.268951 477.989014,432.652466 
	C481.685699,433.130280 483.600220,434.853241 484.374054,438.888062 
	C488.226257,458.973083 498.668915,475.287994 515.560852,486.524384 
	C544.360718,505.681915 574.177551,506.056458 603.119873,487.025055 
	C622.791504,474.089661 634.234009,455.127289 635.975220,431.381805 
	C636.907227,418.670898 636.140625,405.835449 636.140625,393.181641 
	C651.425659,389.165039 651.425659,389.165039 659.286621,381.840973 
	C663.489624,382.242554 667.274475,382.518311 671.059265,382.794067 
	C670.802795,386.325958 672.330750,387.294342 675.827148,386.830933 
	C693.327637,384.511566 707.430359,390.761810 717.051270,405.343994 
	C726.477966,419.631866 726.462219,434.823029 718.033447,449.762787 
	C713.283508,458.181946 706.062561,463.978851 697.094543,467.423309 
	C693.109192,468.954010 688.865479,469.812134 684.253052,470.799500 
	C683.616150,470.394257 683.414490,470.333557 683.161987,470.441406 
	C682.647583,470.395538 682.133179,470.349701 680.833618,470.236847 
	C677.315674,470.161377 674.583008,470.152924 671.643433,470.484314 
	C671.284180,473.133575 671.000610,475.442841 670.998718,477.752350 
	C670.956543,529.814331 670.945374,581.876343 670.928284,633.938354 
M423.385559,545.153870 
	C428.809753,548.055420 434.126617,551.183411 439.679199,553.813965 
	C453.667542,560.441162 468.445709,563.136841 483.898254,561.968994 
	C488.986206,561.584534 492.098999,558.323486 491.965759,553.632690 
	C491.840576,549.225586 488.684174,546.245667 483.776764,545.939575 
	C482.780609,545.877441 481.777405,545.933044 480.777557,545.924438 
	C451.465027,545.672668 428.176575,533.425293 410.318146,510.450836 
	C406.926758,506.087891 402.450287,504.622070 398.709991,506.938873 
	C394.466125,509.567657 393.698303,514.422791 396.795288,519.647827 
	C403.159668,530.385559 412.701050,537.861328 423.385559,545.153870 
M448.006409,493.406555 
	C448.849792,502.808563 453.731934,509.233093 462.585999,512.326233 
	C470.906982,515.233093 479.938904,512.627197 485.549255,505.752045 
	C491.411224,498.568451 492.116333,490.606750 487.656921,482.502502 
	C483.815765,475.521851 479.813446,468.600464 475.412445,461.964539 
	C469.404816,452.906097 469.504181,452.318665 462.936829,461.959351 
	C456.523376,471.374146 449.392212,480.613495 448.006409,493.406555 
z"/>
<path fill="#8E7A74" opacity="1.000000" stroke="none" 
	d="
M280.001709,379.939056 
	C275.886688,380.865234 271.771667,381.791412 267.254211,382.815918 
	C266.574768,380.966675 266.060089,379.019501 266.056274,377.071381 
	C265.997925,347.244537 265.909454,317.417145 266.029938,287.590729 
	C266.124756,264.115570 274.289154,243.704514 290.760590,226.979568 
	C301.819611,215.750336 315.352081,208.449295 330.685059,204.597717 
	C332.566223,204.125183 334.438354,203.616821 337.021729,202.939758 
	C335.503021,200.355972 334.260071,198.313599 333.086823,196.231903 
	C329.301880,189.516388 332.555511,183.477829 340.324829,183.103882 
	C345.478943,182.855804 350.654510,182.928192 355.817169,183.027222 
	C358.962585,183.087555 360.081329,181.890366 361.216705,178.727753 
	C363.143494,173.360428 365.968658,168.132263 369.338776,163.519623 
	C372.507904,159.182037 377.957886,160.217361 381.426392,165.147980 
	C383.050537,167.456787 384.387299,169.966446 385.982147,172.297592 
	C387.559143,174.602539 389.116547,175.100510 391.626343,172.925095 
	C409.003845,157.862595 429.262238,147.822372 451.119446,141.546860 
	C470.079132,136.103271 489.782288,133.944778 509.414307,137.387848 
	C528.554871,140.744705 546.380005,147.638718 562.230408,159.513504 
	C576.824585,170.447159 588.590759,183.581253 598.017761,199.111649 
	C599.564026,201.659058 603.257507,203.713058 606.316284,204.398163 
	C623.477966,208.242081 637.956177,216.713699 649.748474,229.480438 
	C659.100525,239.605316 666.238220,251.338074 668.958130,265.045776 
	C670.626160,273.452179 671.750366,282.101776 671.856995,290.657867 
	C672.209900,318.980743 672.002991,347.310760 671.963928,375.637970 
	C671.960999,377.779510 671.588684,379.920532 671.223633,382.427917 
	C667.274475,382.518311 663.489624,382.242554 659.337646,381.475769 
	C667.437439,363.291046 655.062256,346.474335 639.951477,346.739563 
	C634.481506,346.835632 629.000488,346.308838 623.437500,345.601013 
	C623.113159,339.723907 622.875793,334.312073 622.629150,328.688660 
	C621.550171,328.851837 620.889465,328.876526 620.273560,329.055603 
	C571.033264,343.373077 524.463013,336.758942 480.361511,311.122620 
	C474.209534,307.546539 468.287842,303.574341 462.222107,299.616852 
	C461.962372,299.344452 461.740051,299.240723 461.517761,299.136993 
	C461.655396,299.443054 461.792999,299.749146 461.952148,300.423889 
	C463.686615,304.583557 465.469757,308.344666 467.098511,312.171478 
	C470.897888,321.098083 466.429138,328.961334 456.843719,329.831421 
	C430.649994,332.209137 407.435211,325.221802 387.752808,307.421844 
	C383.825836,303.870483 379.860748,300.361267 375.779053,296.712708 
	C375.175110,297.657166 374.154022,299.342194 373.048248,300.969635 
	C359.597412,320.766022 341.070862,332.192108 317.118469,333.953430 
	C311.792419,334.345062 309.498871,335.725311 310.172272,341.152863 
	C310.372009,342.762543 309.891296,344.456635 309.288452,346.176697 
	C307.035431,346.241943 305.213531,346.177155 303.397583,346.253510 
	C288.526520,346.878784 279.626434,354.831421 278.797455,368.696442 
	C278.575623,372.406708 279.567200,376.189545 280.001709,379.939056 
z"/>
<path fill="#8A70A8" opacity="1.000000" stroke="none" 
	d="
M256.461700,470.958923 
	C259.230957,470.507050 262.437317,470.073578 265.849091,470.347870 
	C266.034637,494.488190 266.023224,517.920715 265.992950,541.353271 
	C265.953430,571.930115 265.898956,602.506897 265.850952,633.083740 
	C265.561127,630.808594 265.020477,628.533752 265.018402,626.258301 
	C264.973572,577.151550 264.989777,528.044739 264.991608,478.937958 
	C264.991882,471.077667 264.986023,471.077667 256.461700,470.958923 
z"/>
<path fill="#8A70A7" opacity="1.000000" stroke="none" 
	d="
M671.850281,470.144470 
	C674.583008,470.152924 677.315674,470.161377 680.446289,470.262085 
	C679.548767,470.584045 678.010681,470.454315 677.014526,471.127075 
	C675.492920,472.154755 673.919006,473.537689 673.169983,475.144073 
	C672.530884,476.514984 673.014404,478.412964 673.014404,480.077759 
	C673.014709,528.858948 673.022156,577.640076 672.999329,626.421265 
	C672.998413,628.400146 672.714233,630.378967 672.301880,632.244995 
	C672.029358,609.966614 672.029419,587.801025 672.001709,565.635376 
	C671.961914,533.805054 671.901733,501.974762 671.850281,470.144470 
z"/>
<path fill="#F7DEFB" opacity="1.000000" stroke="none" 
	d="
M265.920410,633.330444 
	C265.898956,602.506897 265.953430,571.930115 265.992950,541.353271 
	C266.023224,517.920715 266.034637,494.488190 266.102203,470.604126 
	C266.438660,472.421051 266.977173,474.689301 266.979523,476.958038 
	C267.033142,528.974487 267.028320,580.991028 267.045105,633.471802 
	C266.884857,633.997437 266.713898,634.058716 266.270996,634.104858 
	C265.995972,633.918701 265.992920,633.747864 265.920410,633.330444 
z"/>
<path fill="#F8DEFB" opacity="1.000000" stroke="none" 
	d="
M671.643433,470.484314 
	C671.901733,501.974762 671.961914,533.805054 672.001709,565.635376 
	C672.029419,587.801025 672.029358,609.966614 672.095459,632.608643 
	C672.101746,633.249817 672.054382,633.414612 672.000183,633.836609 
	C671.811035,634.102844 671.628662,634.111938 671.187317,634.029724 
	C670.945374,581.876343 670.956543,529.814331 670.998718,477.752350 
	C671.000610,475.442841 671.284180,473.133575 671.643433,470.484314 
z"/>
<path fill="#8A70A8" opacity="1.000000" stroke="none" 
	d="
M265.738281,635.322510 
	C266.002350,648.165039 266.031860,661.356018 266.083466,674.546997 
	C266.092499,676.852112 266.032928,679.025818 262.376770,678.514648 
	C262.991028,675.961121 264.764954,673.555603 264.862549,671.083923 
	C265.328247,659.289490 265.338837,647.476990 265.738281,635.322510 
z"/>
<path fill="#8A70A7" opacity="1.000000" stroke="none" 
	d="
M673.924805,677.965088 
	C673.340149,676.783813 672.035767,675.265564 672.016724,673.731323 
	C671.860229,661.129272 671.942871,648.524231 671.985596,635.449951 
	C672.346741,636.906799 672.941284,638.831238 672.959229,640.761108 
	C673.053833,650.918579 672.958252,661.077820 673.038757,671.235535 
	C673.055603,673.365784 673.534729,675.492371 673.924805,677.965088 
z"/>
<path fill="#8A70A8" opacity="1.000000" stroke="none" 
	d="
M238.761353,679.809448 
	C238.167023,680.208008 237.374878,680.419556 236.278320,680.541504 
	C236.837128,680.175293 237.700317,679.898804 238.761353,679.809448 
z"/>
<path fill="#8A70A8" opacity="1.000000" stroke="none" 
	d="
M243.668365,679.427612 
	C243.186813,679.663635 242.477798,679.775879 241.410355,679.834473 
	C241.848267,679.621826 242.644592,679.462891 243.668365,679.427612 
z"/>
<path fill="#8A70A7" opacity="1.000000" stroke="none" 
	d="
M698.797974,679.841553 
	C698.517334,680.023865 698.089966,680.034973 697.356567,679.945740 
	C697.584106,679.786987 698.117737,679.728638 698.797974,679.841553 
z"/>
<path fill="#8A70A7" opacity="1.000000" stroke="none" 
	d="
M686.809814,678.772217 
	C686.539673,678.948669 686.108582,678.969543 685.361938,678.912476 
	C685.580566,678.761902 686.114746,678.689270 686.809814,678.772217 
z"/>
<path fill="#8A70A8" opacity="1.000000" stroke="none" 
	d="
M232.853485,680.743286 
	C232.964981,680.828552 232.506744,680.978088 232.267120,680.955811 
	C232.203323,680.666809 232.441498,680.574951 232.853485,680.743286 
z"/>
<path fill="#8A70A7" opacity="1.000000" stroke="none" 
	d="
M683.277466,470.538513 
	C683.414490,470.333557 683.616150,470.394257 683.841187,470.775818 
	C683.730225,470.850403 683.556030,470.752899 683.277466,470.538513 
z"/>
<path fill="#474645" opacity="1.000000" stroke="none" 
	d="
M280.299072,380.102600 
	C279.567200,376.189545 278.575623,372.406708 278.797455,368.696442 
	C279.626434,354.831421 288.526520,346.878784 303.397583,346.253510 
	C305.213531,346.177155 307.035431,346.241943 309.666077,346.384583 
	C318.968567,346.571472 327.459534,346.613434 335.950531,346.659149 
	C360.086823,346.789032 384.241638,346.381744 408.353943,347.210541 
	C430.223022,347.962219 449.865295,364.580597 455.280212,385.844086 
	C456.983215,392.531494 457.487000,399.524292 458.573608,406.598389 
	C466.284332,406.598389 474.308044,406.598389 482.492493,406.598389 
	C482.731445,402.419220 482.885132,398.613434 483.176483,394.818207 
	C485.077820,370.051056 507.421814,347.967102 532.239075,347.085846 
	C550.364319,346.442261 568.522827,346.762482 586.665955,346.589386 
	C598.952698,346.472137 611.238403,346.244537 623.524536,346.066284 
	C629.000488,346.308838 634.481506,346.835632 639.951477,346.739563 
	C655.062256,346.474335 667.437439,363.291046 658.919434,381.349945 
	C651.425659,389.165039 651.425659,389.165039 636.140625,393.181641 
	C636.140625,405.835449 636.907227,418.670898 635.975220,431.381805 
	C634.234009,455.127289 622.791504,474.089661 603.119873,487.025055 
	C574.177551,506.056458 544.360718,505.681915 515.560852,486.524384 
	C498.668915,475.287994 488.226257,458.973083 484.374054,438.888062 
	C483.600220,434.853241 481.685699,433.130280 477.989014,432.652466 
	C475.022064,432.268951 472.060822,431.596649 469.088409,431.544556 
	C458.723663,431.362854 457.336548,432.363464 455.118073,442.390472 
	C448.531067,472.162384 419.996155,497.900757 387.158417,500.317230 
	C352.975037,502.832672 323.217468,483.982635 309.922516,454.436401 
	C305.121826,443.767578 303.556213,432.433136 303.500580,420.842072 
	C303.455933,411.542328 303.491577,402.242188 303.491577,392.459259 
	C293.818329,392.688416 286.153015,388.399414 280.299072,380.102600 
M414.780457,478.120056 
	C428.351807,469.709442 437.605774,457.884247 442.116119,442.594666 
	C446.823242,426.638245 446.011780,410.174011 444.329987,394.022980 
	C442.423279,375.711884 427.226135,361.100830 408.593140,359.930725 
	C389.880707,358.755615 370.977631,358.650116 352.273499,359.859894 
	C333.500458,361.074158 318.683044,376.182281 316.856934,394.826965 
	C315.727997,406.353424 316.392670,418.069427 316.533142,429.696930 
	C316.570496,432.790161 317.644043,435.870911 318.224945,439.708923 
	C325.605896,465.644440 342.640839,481.602631 368.881622,486.914581 
	C384.810394,490.139069 400.303040,487.863983 414.780457,478.120056 
M622.599304,437.429413 
	C623.062317,423.828247 624.355103,410.192352 623.788025,396.634277 
	C622.996887,377.721252 607.362549,361.280823 588.399292,359.990173 
	C570.183350,358.750397 551.789978,358.584106 533.557861,359.537994 
	C514.415833,360.539490 498.729950,374.018646 496.501984,392.211090 
	C494.742004,406.581879 494.866241,421.545685 496.742920,435.907806 
	C499.084198,453.825500 509.259766,467.849243 525.263245,478.028168 
	C547.729553,492.199371 576.097412,491.648224 597.468079,475.907928 
	C610.250916,466.492889 619.427856,454.273346 622.599304,437.429413 
M640.081116,375.468536 
	C644.142151,374.242218 645.877380,371.445068 644.527405,367.489471 
	C643.452393,364.339569 640.760498,362.818634 637.366394,363.730133 
	C633.700134,364.714691 631.887878,367.698059 633.279541,370.930023 
	C634.165955,372.988403 637.256592,374.097626 640.081116,375.468536 
M296.177094,366.534149 
	C294.692413,372.131317 297.641022,376.662170 302.205170,375.282501 
	C304.177368,374.686340 306.474915,372.447632 306.977661,370.524536 
	C307.421509,368.826721 305.903137,365.081055 304.672607,364.803345 
	C302.193451,364.243866 299.320801,365.428192 296.177094,366.534149 
z"/>
<path fill="#ECB09B" opacity="1.000000" stroke="none" 
	d="
M423.071411,544.975586 
	C412.701050,537.861328 403.159668,530.385559 396.795288,519.647827 
	C393.698303,514.422791 394.466125,509.567657 398.709991,506.938873 
	C402.450287,504.622070 406.926758,506.087891 410.318146,510.450836 
	C428.176575,533.425293 451.465027,545.672668 480.777557,545.924438 
	C481.777405,545.933044 482.780609,545.877441 483.776764,545.939575 
	C488.684174,546.245667 491.840576,549.225586 491.965759,553.632690 
	C492.098999,558.323486 488.986206,561.584534 483.898254,561.968994 
	C468.445709,563.136841 453.667542,560.441162 439.679199,553.813965 
	C434.126617,551.183411 428.809753,548.055420 423.071411,544.975586 
z"/>
<path fill="#EDB09A" opacity="1.000000" stroke="none" 
	d="
M448.005310,492.980408 
	C449.392212,480.613495 456.523376,471.374146 462.936829,461.959351 
	C469.504181,452.318665 469.404816,452.906097 475.412445,461.964539 
	C479.813446,468.600464 483.815765,475.521851 487.656921,482.502502 
	C492.116333,490.606750 491.411224,498.568451 485.549255,505.752045 
	C479.938904,512.627197 470.906982,515.233093 462.585999,512.326233 
	C453.731934,509.233093 448.849792,502.808563 448.005310,492.980408 
z"/>
<path fill="#F8E3D8" opacity="1.000000" stroke="none" 
	d="
M623.437500,345.601013 
	C611.238403,346.244537 598.952698,346.472137 586.665955,346.589386 
	C568.522827,346.762482 550.364319,346.442261 532.239075,347.085846 
	C507.421814,347.967102 485.077820,370.051056 483.176483,394.818207 
	C482.885132,398.613434 482.731445,402.419220 482.492493,406.598389 
	C474.308044,406.598389 466.284332,406.598389 458.573608,406.598389 
	C457.487000,399.524292 456.983215,392.531494 455.280212,385.844086 
	C449.865295,364.580597 430.223022,347.962219 408.353943,347.210541 
	C384.241638,346.381744 360.086823,346.789032 335.950531,346.659149 
	C327.459534,346.613434 318.968567,346.571472 310.099976,346.319946 
	C309.891296,344.456635 310.372009,342.762543 310.172272,341.152863 
	C309.498871,335.725311 311.792419,334.345062 317.118469,333.953430 
	C341.070862,332.192108 359.597412,320.766022 373.048248,300.969635 
	C374.154022,299.342194 375.175110,297.657166 375.779053,296.712708 
	C379.860748,300.361267 383.825836,303.870483 387.752808,307.421844 
	C407.435211,325.221802 430.649994,332.209137 456.843719,329.831421 
	C466.429138,328.961334 470.897888,321.098083 467.098511,312.171478 
	C465.469757,308.344666 463.686615,304.583557 462.033875,300.355865 
	C462.094116,299.919159 462.259552,299.785492 462.259552,299.785492 
	C468.287842,303.574341 474.209534,307.546539 480.361511,311.122620 
	C524.463013,336.758942 571.033264,343.373077 620.273560,329.055603 
	C620.889465,328.876526 621.550171,328.851837 622.629150,328.688660 
	C622.875793,334.312073 623.113159,339.723907 623.437500,345.601013 
z"/>
<path fill="#F8E3D8" opacity="1.000000" stroke="none" 
	d="
M462.012390,299.987183 
	C461.792999,299.749146 461.655396,299.443054 461.517761,299.136993 
	C461.740051,299.240723 461.962372,299.344452 462.222107,299.616852 
	C462.259552,299.785492 462.094116,299.919159 462.012390,299.987183 
z"/>
<path fill="#FDFDFB" opacity="1.000000" stroke="none" 
	d="
M524.856567,477.523193 
	C509.259766,467.849243 499.084198,453.825500 496.742920,435.907806 
	C494.866241,421.545685 494.742004,406.581879 496.501984,392.211090 
	C498.729950,374.018646 514.415833,360.539490 533.557861,359.537994 
	C551.789978,358.584106 570.183350,358.750397 588.399292,359.990173 
	C607.362549,361.280823 622.996887,377.721252 623.788025,396.634277 
	C624.355103,410.192352 623.062317,423.828247 621.928467,437.731171 
	C602.224548,440.718536 583.919006,445.852997 566.416626,453.897736 
	C563.151855,455.398346 559.410522,455.861847 556.024170,456.490723 
	C566.107849,449.537964 571.083801,440.229095 571.099060,428.277069 
	C571.109741,419.954651 571.201782,411.629517 571.013428,403.311157 
	C570.946594,400.359711 570.497009,397.322510 569.644348,394.498962 
	C564.805054,378.474213 546.462158,368.526764 531.479370,374.041534 
	C534.034607,381.690216 533.246033,389.020996 528.276062,395.631165 
	C523.263245,402.298309 516.167358,404.454254 507.903473,404.359467 
	C507.903473,413.394958 507.443756,422.057373 508.083344,430.637848 
	C508.442535,435.456848 509.996185,440.440491 512.107483,444.821930 
	C516.357056,453.640747 524.594727,458.338684 533.456482,460.612000 
	C539.261597,462.101227 545.914062,461.409637 551.723633,458.846558 
	C547.139099,462.132019 542.530640,464.965851 538.067993,468.013306 
	C533.588440,471.072357 529.254395,474.344452 524.856567,477.523193 
z"/>
<path fill="#FDFDFC" opacity="1.000000" stroke="none" 
	d="
M318.241882,438.957367 
	C317.644043,435.870911 316.570496,432.790161 316.533142,429.696930 
	C316.392670,418.069427 315.727997,406.353424 316.856934,394.826965 
	C318.683044,376.182281 333.500458,361.074158 352.273499,359.859894 
	C370.977631,358.650116 389.880707,358.755615 408.593140,359.930725 
	C427.226135,361.100830 442.423279,375.711884 444.329987,394.022980 
	C446.011780,410.174011 446.823242,426.638245 442.116119,442.594666 
	C437.605774,457.884247 428.351807,469.709442 414.245819,477.911377 
	C409.462463,474.630280 405.232147,471.532043 400.960022,468.492554 
	C396.379059,465.233368 391.758820,462.029449 387.551849,458.842346 
	C408.188873,465.713593 427.336365,453.120392 429.717865,435.066681 
	C431.311462,422.985809 431.345276,410.364655 429.790741,398.279327 
	C427.288940,378.829712 405.320923,366.945404 388.217377,374.701874 
	C388.322510,375.289124 388.441864,375.914551 388.545776,376.542542 
	C390.944153,391.035278 384.346863,400.709717 370.031616,404.111084 
	C368.849243,404.392059 367.318970,406.355621 367.246185,407.612457 
	C366.938782,412.919739 367.368866,418.268982 367.078552,423.578186 
	C366.307617,437.675690 371.113220,448.966766 382.737549,456.833191 
	C380.787537,456.323578 379.152039,455.977081 377.664215,455.304138 
	C358.712341,446.732544 338.838654,441.536621 318.241882,438.957367 
z"/>
<path fill="#F8E3D9" opacity="1.000000" stroke="none" 
	d="
M555.889099,456.803955 
	C559.410522,455.861847 563.151855,455.398346 566.416626,453.897736 
	C583.919006,445.852997 602.224548,440.718536 621.687988,438.046906 
	C619.427856,454.273346 610.250916,466.492889 597.468079,475.907928 
	C576.097412,491.648224 547.729553,492.199371 525.059937,477.775665 
	C529.254395,474.344452 533.588440,471.072357 538.067993,468.013306 
	C542.530640,464.965851 547.139099,462.132019 551.864136,458.946991 
	C552.044678,458.689484 551.893066,458.998077 552.075806,458.821899 
	C552.504272,458.409607 552.750122,458.173492 553.200684,457.685699 
	C554.233276,457.223999 555.061157,457.013977 555.889099,456.803955 
z"/>
<path fill="#F8E3D9" opacity="1.000000" stroke="none" 
	d="
M387.155701,458.801422 
	C391.758820,462.029449 396.379059,465.233368 400.960022,468.492554 
	C405.232147,471.532043 409.462463,474.630280 413.903015,477.996826 
	C400.303040,487.863983 384.810394,490.139069 368.881622,486.914581 
	C342.640839,481.602631 325.605896,465.644440 318.233398,439.333130 
	C338.838654,441.536621 358.712341,446.732544 377.664215,455.304138 
	C379.152039,455.977081 380.787537,456.323578 382.713715,456.859894 
	C383.073029,456.898010 383.068054,456.827301 383.166870,457.175354 
	C384.557648,457.990967 385.849640,458.458557 387.115540,458.891602 
	C387.089478,458.857086 387.155701,458.801422 387.155701,458.801422 
z"/>
<path fill="#9C9C9C" opacity="1.000000" stroke="none" 
	d="
M639.719971,375.550476 
	C637.256592,374.097626 634.165955,372.988403 633.279541,370.930023 
	C631.887878,367.698059 633.700134,364.714691 637.366394,363.730133 
	C640.760498,362.818634 643.452393,364.339569 644.527405,367.489471 
	C645.877380,371.445068 644.142151,374.242218 639.719971,375.550476 
z"/>
<path fill="#9D9D9D" opacity="1.000000" stroke="none" 
	d="
M296.393799,366.213623 
	C299.320801,365.428192 302.193451,364.243866 304.672607,364.803345 
	C305.903137,365.081055 307.421509,368.826721 306.977661,370.524536 
	C306.474915,372.447632 304.177368,374.686340 302.205170,375.282501 
	C297.641022,376.662170 294.692413,372.131317 296.393799,366.213623 
z"/>
<path fill="#638E2C" opacity="1.000000" stroke="none" 
	d="
M556.024170,456.490723 
	C555.061157,457.013977 554.233276,457.223999 552.898499,457.736755 
	C552.225464,458.358978 552.059265,458.678528 551.893066,458.998077 
	C551.893066,458.998077 552.044678,458.689484 551.904114,458.589050 
	C545.914062,461.409637 539.261597,462.101227 533.456482,460.612000 
	C524.594727,458.338684 516.357056,453.640747 512.107483,444.821930 
	C509.996185,440.440491 508.442535,435.456848 508.083344,430.637848 
	C507.443756,422.057373 507.903473,413.394958 507.903473,404.359467 
	C516.167358,404.454254 523.263245,402.298309 528.276062,395.631165 
	C533.246033,389.020996 534.034607,381.690216 531.479370,374.041534 
	C546.462158,368.526764 564.805054,378.474213 569.644348,394.498962 
	C570.497009,397.322510 570.946594,400.359711 571.013428,403.311157 
	C571.201782,411.629517 571.109741,419.954651 571.099060,428.277069 
	C571.083801,440.229095 566.107849,449.537964 556.024170,456.490723 
z"/>
<path fill="#638F2C" opacity="1.000000" stroke="none" 
	d="
M383.096863,456.871307 
	C371.113220,448.966766 366.307617,437.675690 367.078552,423.578186 
	C367.368866,418.268982 366.938782,412.919739 367.246185,407.612457 
	C367.318970,406.355621 368.849243,404.392059 370.031616,404.111084 
	C384.346863,400.709717 390.944153,391.035278 388.545776,376.542542 
	C388.441864,375.914551 388.322510,375.289124 388.217377,374.701874 
	C405.320923,366.945404 427.288940,378.829712 429.790741,398.279327 
	C431.345276,410.364655 431.311462,422.985809 429.717865,435.066681 
	C427.336365,453.120392 408.188873,465.713593 387.551849,458.842346 
	C387.155701,458.801422 387.089478,458.857086 386.913666,458.624512 
	C385.514587,457.870392 384.291321,457.348846 383.068054,456.827301 
	C383.068054,456.827301 383.073029,456.898010 383.096863,456.871307 
z"/>
<path fill="#FDFDFB" opacity="1.000000" stroke="none" 
	d="
M552.075806,458.821899 
	C552.059265,458.678528 552.225464,458.358978 552.693848,457.988403 
	C552.750122,458.173492 552.504272,458.409607 552.075806,458.821899 
z"/>
<path fill="#FDFDFC" opacity="1.000000" stroke="none" 
	d="
M383.166870,457.175354 
	C384.291321,457.348846 385.514587,457.870392 386.939728,458.659058 
	C385.849640,458.458557 384.557648,457.990967 383.166870,457.175354 
z"/>
</svg>