<svg width="48" height="36" viewBox="0 0 48 36" fill="none" xmlns="http://www.w3.org/2000/svg">
<g clip-path="url(#clip0_92_1374)">
<rect width="48" height="36" rx="8" fill="#F5F5F5"/>
<path fill-rule="evenodd" clip-rule="evenodd" d="M0 0.36V4.33L42.22 36H48V31.68L5.76 0H0.209999L0 0.36Z" fill="#93C5FD"/>
<path d="M27.721 9.86192C27.6789 9.81276 27.6327 9.76308 27.5836 9.71391C27.0512 9.18057 26.3413 8.88656 25.5867 8.88656C25.3152 8.88656 25.0478 8.92569 24.7894 9.00196C24.6775 8.96834 24.5626 8.94225 24.4462 8.92419V8.45758C24.4462 8.33164 24.3951 8.21725 24.3118 8.13396C24.229 8.05118 24.1151 8 23.9881 8C23.7353 8 23.5301 8.20521 23.5301 8.45758V8.92469C23.4152 8.94376 23.3013 8.96985 23.1904 9.00246C22.931 8.92569 22.6626 8.88656 22.3896 8.88656C21.5703 8.88656 20.7931 9.24178 20.2573 9.85992C19.8112 10.3727 19.5654 11.0305 19.5654 11.7108C19.5654 11.9642 19.7701 12.1689 20.0235 12.1689H20.9702C21.0129 12.1659 21.0555 12.1639 21.0992 12.1639H26.8771C26.9208 12.1639 26.9634 12.1659 27.0061 12.1689H27.9528C28.2062 12.1689 28.4109 11.9642 28.4109 11.7113C28.4109 11.03 28.1651 10.3727 27.721 9.86192ZM21.202 11.2532H20.5372C20.6085 10.9622 20.7495 10.6898 20.9487 10.4595C21.186 10.1855 21.494 9.98886 21.8342 9.88551C21.5016 10.2774 21.2843 10.751 21.202 11.2532ZM23.5301 11.2532H22.1358C22.207 10.9622 22.348 10.6898 22.5472 10.4595C22.8076 10.1595 23.1518 9.95173 23.5301 9.85791V11.2532ZM24.4462 11.2532V9.85741C24.7809 9.93919 25.0874 10.1113 25.3373 10.3616C25.3699 10.3943 25.401 10.4269 25.4296 10.4605C25.6293 10.6898 25.7693 10.9622 25.8405 11.2532H24.4462ZM26.7743 11.2532C26.692 10.749 26.4737 10.2743 26.1406 9.8835C26.4376 9.97331 26.7105 10.1354 26.9358 10.3616C26.9689 10.3943 26.9995 10.4269 27.0281 10.4605C27.2278 10.6898 27.3678 10.9622 27.4391 11.2532H26.7743Z" fill="#FBBF24"/>
<path d="M27.4391 11.2535H26.7743C26.692 10.7493 26.4737 10.2746 26.1406 9.88379C26.4376 9.9736 26.7106 10.1357 26.9358 10.3619C26.9689 10.3946 26.9996 10.4272 27.0281 10.4608C27.2278 10.6901 27.3678 10.9625 27.4391 11.2535Z" fill="#EF4444"/>
<path d="M25.8406 11.2532H24.4463V9.85742C24.7809 9.9392 25.0875 10.1113 25.3373 10.3617C25.3699 10.3943 25.401 10.4269 25.4296 10.4605C25.6293 10.6898 25.7693 10.9622 25.8406 11.2532Z" fill="#EF4444"/>
<path d="M23.5301 9.85791V11.2532H22.1358C22.207 10.9622 22.348 10.6898 22.5472 10.4595C22.8076 10.1595 23.1518 9.95173 23.5301 9.85791Z" fill="#EF4444"/>
<path d="M21.8342 9.88574C21.5016 10.2776 21.2843 10.7512 21.202 11.2535H20.5372C20.6085 10.9625 20.7495 10.69 20.9487 10.4597C21.186 10.1858 21.494 9.9891 21.8342 9.88574Z" fill="#EF4444"/>
<path d="M29.9763 14.21V22.0119C29.9763 25.0218 27.7542 27.5144 24.8612 27.9364C24.5767 27.9785 24.2852 28.0001 23.9882 28.0001C23.6911 28.0001 23.4001 27.9785 23.1152 27.9364C20.2222 27.5139 18 25.0218 18 22.0119V14.21C18 13.5858 18.5062 13.0796 19.1304 13.0796H28.8459C29.4701 13.0796 29.9763 13.5858 29.9763 14.21Z" fill="#3B82F6"/>
<path d="M23.9882 20.8449C24.7998 20.8449 25.4577 20.187 25.4577 19.3753C25.4577 18.5637 24.7998 17.9058 23.9882 17.9058C23.1765 17.9058 22.5186 18.5637 22.5186 19.3753C22.5186 20.187 23.1765 20.8449 23.9882 20.8449Z" fill="#D4D4D4"/>
<path d="M26.4321 21.9842C26.4321 22.6881 26.0403 23.2997 25.4628 23.6128C25.0945 23.8125 24.8612 24.1928 24.8612 24.6117V27.9362C24.5767 27.9784 24.2852 27.9999 23.9882 27.9999C23.6911 27.9999 23.4001 27.9784 23.1152 27.9362V24.6117C23.1152 24.1933 22.8819 23.813 22.5136 23.6133C22.3164 23.5064 22.1413 23.3649 21.9953 23.1969C21.7138 22.8722 21.5437 22.4483 21.5437 21.9842C21.5437 21.7569 21.7284 21.5728 21.9552 21.5728H26.0202C26.1341 21.5728 26.2369 21.6189 26.3117 21.6932C26.3859 21.7679 26.4321 21.8703 26.4321 21.9847V21.9842Z" fill="#FBBF24"/>
</g>
<defs>
<clipPath id="clip0_92_1374">
<rect width="48" height="36" rx="8" fill="white"/>
</clipPath>
</defs>
</svg>
