<svg width="48" height="36" viewBox="0 0 48 36" fill="none" xmlns="http://www.w3.org/2000/svg">
<rect width="48" height="36" rx="8" fill="#262626"/>
<path d="M34.0059 8.72287C33.6289 8.61857 33.4523 8.43475 33.3305 8.06505C32.9835 7.0148 32.1976 6.8537 31.325 7.10258C30.5897 7.31221 30.1229 8.34077 30.5123 9.0523C30.8499 9.66985 30.6197 9.98482 30.1952 10.3349C30.0765 10.432 29.9742 10.5497 29.8668 10.6602C28.7216 11.8313 28.6431 11.4998 29.9587 12.8237C30.2004 13.0664 30.4255 13.0664 30.6661 12.8227C31.0627 12.4199 31.4799 12.0378 31.8599 11.6206C32.1522 11.2994 32.401 11.222 32.8327 11.4306C33.8912 11.9438 34.9941 11.2189 34.9859 10.0685C34.9807 9.41168 34.642 8.8974 34.0059 8.72287ZM18.0704 23.13C17.8246 22.8894 17.5953 22.9069 17.3588 23.1486C16.9509 23.5658 16.5265 23.9675 16.1237 24.3888C15.8604 24.6635 15.6043 24.8226 15.2356 24.5572C15.0353 24.4136 14.7812 24.4136 14.5396 24.4126C13.7785 24.4105 13.1898 24.8587 13.0329 25.5599C12.88 26.2466 13.2714 26.9695 13.9706 27.2577C14.2855 27.3878 14.5726 27.4611 14.6821 27.8907C14.9041 28.7582 15.7902 29.1661 16.6401 28.8738C17.4125 28.6074 17.8834 27.7172 17.5055 26.954C17.2008 26.3417 17.3929 26.0081 17.8256 25.6508C17.9568 25.5424 18.0693 25.4102 18.1912 25.2883C19.3024 24.1792 19.3168 24.3527 18.0704 23.13ZM34.9126 25.3596C34.673 24.616 33.8169 24.1369 33.0331 24.4952C32.3628 24.7998 32.0189 24.5603 31.6441 24.11C31.546 23.9912 31.4252 23.8931 31.3157 23.7847C30.1673 22.6498 30.4534 22.658 29.2173 23.8745C28.9395 24.1482 28.9426 24.4033 29.209 24.6728C29.5952 25.0632 29.9649 25.4711 30.3697 25.8408C30.6868 26.13 30.851 26.3954 30.5536 26.8022C30.4121 26.9943 30.3925 27.2515 30.4059 27.4621C30.4152 28.2511 30.8778 28.8036 31.6183 28.9409C32.3804 29.0835 33.0723 28.6983 33.317 27.9403C33.4275 27.5964 33.5897 27.4043 33.9429 27.2876C34.8052 27.0026 35.1862 26.2043 34.9126 25.3596ZM18.7736 11.2519C18.4049 10.8926 18.0569 10.5105 17.6686 10.1738C17.3206 9.87123 17.2607 9.60273 17.4662 9.15763C17.965 8.07331 17.2566 7.0117 16.0948 7.01893C15.3792 7.02306 14.8236 7.3876 14.6811 8.05472C14.5943 8.46263 14.3888 8.60514 14.0201 8.71254C13.2456 8.93767 12.8274 9.77932 13.0752 10.5115C13.3623 11.3562 14.2277 11.8643 14.9826 11.4957C15.5991 11.1962 15.9678 11.3438 16.3344 11.8189C16.4387 11.9542 16.573 12.0647 16.6958 12.1845C17.8359 13.3018 17.5695 13.3359 18.7953 12.0998C19.0855 11.8086 19.0566 11.5297 18.7736 11.2519ZM30.3036 19.8398C29.7016 18.7875 29.7098 17.8002 29.9484 16.72C29.9691 16.6219 29.9505 16.5156 29.9505 16.4123C29.9556 15.2598 29.6283 14.2158 28.9116 13.3029C27.4751 11.474 24.8686 10.4568 22.0855 11.317C19.3592 12.1607 17.6459 15.0553 18.3791 17.7424C18.5247 18.2712 18.471 18.6677 18.1726 19.1293C17.2473 20.5648 17.8287 22.1654 19.4593 22.6467C20.0325 22.816 20.2669 23.0887 20.1894 23.6618C20.176 23.762 20.1894 23.8673 20.1967 23.9696C20.2524 24.7048 20.6727 25.1572 21.2975 25.1592C21.881 25.1613 22.3003 24.709 22.4077 24.0129C22.45 23.7372 22.2652 23.2498 22.6772 23.2436C23.1502 23.2374 22.9519 23.7393 22.9798 24.0274C23.0469 24.711 23.4476 25.1355 24.0858 25.1437C24.6703 25.152 25.1175 24.7152 25.1825 24.0677C25.2011 23.8807 25.198 23.6907 25.2176 23.5038C25.2321 23.3592 25.293 23.2281 25.4613 23.2188C25.6586 23.2074 25.7298 23.3468 25.7464 23.5141C25.765 23.7186 25.7567 23.9262 25.7825 24.1296C25.86 24.7348 26.3236 25.1541 26.8865 25.1427C27.5092 25.1303 27.9233 24.7224 27.9656 24.0666C27.9811 23.827 27.9822 23.5864 27.977 23.3468C27.9708 23.0267 28.1081 22.8305 28.4231 22.7479C28.6389 22.6911 28.8527 22.6229 29.0582 22.5382C30.094 22.1117 30.8386 20.7734 30.3036 19.8398ZM21.2387 19.6746C20.3154 19.876 19.5223 19.309 19.4645 18.3672C19.3808 16.9875 19.9653 16.0643 21.5165 16.1386C22.9602 16.0219 23.3939 17.254 22.9529 18.2577C22.6194 19.0178 22.0421 19.499 21.2387 19.6746ZM24.8779 21.7204C24.6083 21.7544 24.3316 21.7265 24.0589 21.7265C24.0579 21.7369 24.0579 21.7472 24.0579 21.7586C23.7853 21.7441 23.5075 21.7555 23.24 21.71C22.8063 21.6367 22.639 21.3496 22.83 20.9685C23.082 20.4646 23.3629 19.973 23.6686 19.5011C23.9164 19.119 24.2748 19.1283 24.533 19.5217C24.8221 19.9637 25.0865 20.4254 25.3292 20.8952C25.5667 21.3527 25.3994 21.6532 24.8779 21.7204ZM28.0131 19.5217C27.4111 19.8357 26.8173 19.751 26.2545 19.4102C25.4407 18.9197 24.9853 18.2278 25.0844 17.2436C25.1319 16.7789 25.356 16.3978 25.798 16.2626C26.5188 16.0416 27.2655 16.024 27.9388 16.4206C28.5543 16.7841 28.6895 17.4027 28.6575 18.0791C28.6926 18.6646 28.6038 19.214 28.0131 19.5217Z" fill="#F5F5F5"/>
</svg>
