<svg width="48" height="36" viewBox="0 0 48 36" fill="none" xmlns="http://www.w3.org/2000/svg">
<rect width="48" height="36" rx="8" fill="#F5F5F5"/>
<path d="M11.8442 21.6883C8.6213 21.6883 6 19.067 6 15.8442C6 12.6213 8.6213 10 11.8442 10C15.067 10 17.6883 12.6213 17.6883 15.8442C17.6883 19.067 15.067 21.6883 11.8442 21.6883ZM11.8442 11.4545C9.42338 11.4545 7.45455 13.4234 7.45455 15.8442C7.45455 18.2649 9.42338 20.2338 11.8442 20.2338C14.2649 20.2338 16.2338 18.2649 16.2338 15.8442C16.2338 13.4234 14.2649 11.4545 11.8442 11.4545Z" fill="#3B82F6"/>
<path d="M24 21.6883C20.7771 21.6883 18.1558 19.067 18.1558 15.8442C18.1558 12.6213 20.7771 10 24 10C27.2229 10 29.8442 12.6213 29.8442 15.8442C29.8442 19.067 27.2229 21.6883 24 21.6883ZM24 11.4545C21.5792 11.4545 19.6104 13.4234 19.6104 15.8442C19.6104 18.2649 21.5792 20.2338 24 20.2338C26.4208 20.2338 28.3896 18.2649 28.3896 15.8442C28.3896 13.4234 26.4208 11.4545 24 11.4545Z" fill="#262626"/>
<path d="M36.1558 21.6883C32.933 21.6883 30.3117 19.067 30.3117 15.8442C30.3117 12.6213 32.933 10 36.1558 10C39.3787 10 42 12.6213 42 15.8442C42 19.067 39.3787 21.6883 36.1558 21.6883ZM36.1558 11.4545C33.7351 11.4545 31.7662 13.4234 31.7662 15.8442C31.7662 18.2649 33.7351 20.2338 36.1558 20.2338C38.5766 20.2338 40.5455 18.2649 40.5455 15.8442C40.5455 13.4234 38.5766 11.4545 36.1558 11.4545Z" fill="#EF4444"/>
<path d="M17.9221 26.8826C14.6992 26.8826 12.0779 24.2613 12.0779 21.0385C12.0779 17.8156 14.6992 15.1943 17.9221 15.1943C21.1449 15.1943 23.7662 17.8156 23.7662 21.0385C23.7662 24.2613 21.1449 26.8826 17.9221 26.8826ZM17.9221 16.6489C15.5013 16.6489 13.5325 18.6177 13.5325 21.0385C13.5325 23.4593 15.5013 25.4281 17.9221 25.4281C20.3429 25.4281 22.3117 23.4593 22.3117 21.0385C22.3117 18.6177 20.3429 16.6489 17.9221 16.6489Z" fill="#FBBF24"/>
<path d="M30.0779 26.8826C26.8551 26.8826 24.2338 24.2613 24.2338 21.0385C24.2338 17.8156 26.8551 15.1943 30.0779 15.1943C33.3008 15.1943 35.9221 17.8156 35.9221 21.0385C35.9221 24.2613 33.3008 26.8826 30.0779 26.8826ZM30.0779 16.6489C27.6571 16.6489 25.6883 18.6177 25.6883 21.0385C25.6883 23.4593 27.6571 25.4281 30.0779 25.4281C32.4987 25.4281 34.4675 23.4593 34.4675 21.0385C34.4675 18.6177 32.4987 16.6489 30.0779 16.6489Z" fill="#22C55E"/>
<path d="M16.5195 19.3509L15.3559 18.4781C16.5184 16.927 16.5184 14.7618 15.3559 13.2106L16.5195 12.3379C18.0675 14.4023 18.0675 17.2865 16.5195 19.3509Z" fill="#3B82F6"/>
<path d="M24 21.6885C22.7439 21.6885 21.4982 21.273 20.4935 20.5197L21.3662 19.3561C22.1216 19.9223 23.0566 20.234 24 20.234V21.6885ZM28.6753 19.3509L27.5117 18.4781C28.6743 16.927 28.6743 14.7618 27.5117 13.2106L28.6753 12.3379C30.2234 14.4023 30.2234 17.2865 28.6753 19.3509Z" fill="#262626"/>
<path d="M36.1558 21.6879C34.8997 21.6879 33.654 21.2724 32.6494 20.5191L33.5221 19.3555C34.2764 19.9217 35.2125 20.2334 36.1558 20.2334V21.6879Z" fill="#EF4444"/>
</svg>
