<svg width="48" height="36" viewBox="0 0 48 36" fill="none" xmlns="http://www.w3.org/2000/svg">
<g clip-path="url(#clip0_98_2505)">
<rect width="48" height="36" rx="8" fill="#F5F5F5"/>
<path d="M4.36364 0H0V4.5H4.36364V0Z" fill="#262626"/>
<path d="M13.0909 0H8.72728V4.5H13.0909V0Z" fill="#262626"/>
<path d="M21.8182 0H17.4545V4.5H21.8182V0Z" fill="#262626"/>
<path d="M30.5455 0H26.1818V4.5H30.5455V0Z" fill="#262626"/>
<path d="M8.72727 4.5H4.36363V9H8.72727V4.5Z" fill="#262626"/>
<path d="M17.4545 4.5H13.0909V9H17.4545V4.5Z" fill="#262626"/>
<path d="M26.1818 4.5H21.8182V9H26.1818V4.5Z" fill="#262626"/>
<path d="M34.9091 4.5H30.5455V9H34.9091V4.5Z" fill="#262626"/>
<path d="M4.36364 9H0V13.5H4.36364V9Z" fill="#262626"/>
<path d="M13.0909 9H8.72728V13.5H13.0909V9Z" fill="#262626"/>
<path d="M21.8182 9H17.4545V13.5H21.8182V9Z" fill="#262626"/>
<path d="M30.5455 9H26.1818V13.5H30.5455V9Z" fill="#262626"/>
<path d="M8.72727 13.5H4.36363V18H8.72727V13.5Z" fill="#262626"/>
<path d="M17.4545 13.5H13.0909V18H17.4545V13.5Z" fill="#262626"/>
<path d="M26.1818 13.5H21.8182V18H26.1818V13.5Z" fill="#262626"/>
<path d="M34.9091 13.5H30.5455V18H34.9091V13.5Z" fill="#262626"/>
<path d="M4.36364 18H0V22.5H4.36364V18Z" fill="#262626"/>
<path d="M13.0909 18H8.72728V22.5H13.0909V18Z" fill="#262626"/>
<path d="M21.8182 18H17.4545V22.5H21.8182V18Z" fill="#262626"/>
<path d="M30.5455 18H26.1818V22.5H30.5455V18Z" fill="#262626"/>
<path d="M8.72727 22.5H4.36363V27H8.72727V22.5Z" fill="#262626"/>
<path d="M17.4545 22.5H13.0909V27H17.4545V22.5Z" fill="#262626"/>
<path d="M26.1818 22.5H21.8182V27H26.1818V22.5Z" fill="#262626"/>
<path d="M34.9091 22.5H30.5455V27H34.9091V22.5Z" fill="#262626"/>
<path d="M4.36364 27H0V31.5H4.36364V27Z" fill="#262626"/>
<path d="M13.0909 27H8.72728V31.5H13.0909V27Z" fill="#262626"/>
<path d="M21.8182 27H17.4545V31.5H21.8182V27Z" fill="#262626"/>
<path d="M30.5455 27H26.1818V31.5H30.5455V27Z" fill="#262626"/>
<path d="M8.72727 31.5H4.36363V36H8.72727V31.5Z" fill="#262626"/>
<path d="M17.4545 31.5H13.0909V36H17.4545V31.5Z" fill="#262626"/>
<path d="M26.1818 31.5H21.8182V36H26.1818V31.5Z" fill="#262626"/>
<path d="M34.9091 31.5H30.5455V36H34.9091V31.5Z" fill="#262626"/>
<path d="M39.2727 0H34.9091V4.5H39.2727V0Z" fill="#262626"/>
<path d="M48 0H43.6364V4.5H48V0Z" fill="#262626"/>
<path d="M43.6364 4.5H39.2727V9H43.6364V4.5Z" fill="#262626"/>
<path d="M39.2727 9H34.9091V13.5H39.2727V9Z" fill="#262626"/>
<path d="M48 9H43.6364V13.5H48V9Z" fill="#262626"/>
<path d="M43.6364 13.5H39.2727V18H43.6364V13.5Z" fill="#262626"/>
<path d="M39.2727 18H34.9091V22.5H39.2727V18Z" fill="#262626"/>
<path d="M48 18H43.6364V22.5H48V18Z" fill="#262626"/>
<path d="M43.6364 22.5H39.2727V27H43.6364V22.5Z" fill="#262626"/>
<path d="M39.2727 27H34.9091V31.5H39.2727V27Z" fill="#262626"/>
<path d="M48 27H43.6364V31.5H48V27Z" fill="#262626"/>
<path d="M43.6364 31.5H39.2727V36H43.6364V31.5Z" fill="#262626"/>
</g>
<defs>
<clipPath id="clip0_98_2505">
<rect width="48" height="36" rx="8" fill="white"/>
</clipPath>
</defs>
</svg>
